<svg xmlns="http://www.w3.org/2000/svg" width="250" height="250" viewBox="0 0 250 250">
    <g fill="none" fill-rule="evenodd">
        <path fill="#FFF" d="M-820-2948H620v5684H-820z"/>
        <path fill="#000" d="M147.783 95.265c-1.27-.48-2.644-.622-4.089-.418-1.679.067-3.463.174-5.201.647-.295.08-.843.229-1.069.658-.08.151-.15.402-.033.74.245.708.836 1.13 1.547 1.13.088 0 .179-.006.27-.02a57.54 57.54 0 0 0 1.117-.176c.363-.06.725-.118 1.089-.172.529-.078 1.055-.176 1.581-.274 1.504-.281 2.924-.549 4.413-.356.885.111 1.118-.383 1.176-.689.138-.715-.497-.955-.801-1.07zm-47.765 42.565c-1.061-.147-2.022-.182-2.94-.105-1.113.093-1.707.622-1.767 1.572-.014.233.097.48.322.716.308.322.885.664 1.433.664h.033c1.127-.058 2.07-.563 2.981-1.051l.265-.142c.239-.127.737-.391.6-.992-.125-.553-.622-.62-.927-.662zm4.803-8.29c-.54-.269-1.197-.53-1.977-.422l-1.26.17c-2.616.348-5.32.708-7.91 1.535-.523.167-1.612.516-1.436 1.734.14.967.955 1.124 1.442 1.218.085.016.167.032.242.05l.069.01h.059c.344 0 .587-.091.784-.165.064-.025.126-.048.19-.067.298-.085.595-.18.893-.276.768-.246 1.563-.5 2.341-.563 2.116-.174 4.147-.748 6.111-1.303l.273-.077c.635-.179.757-.615.773-.859.028-.424-.189-.783-.594-.985zM85.609 76.177c.644.225 1.324.347 1.98.464.293.053.585.105.874.166l.037.008h.036c.794-.014 1.043-.655 1.125-.865.256-.661.1-1.226-.429-1.55-1.07-.655-2.694-1.56-4.45-1.855-2.12-.356-4.235-.091-6.117.767-.721.328-1.098.818-1.121 1.455-.022.592.32 1.077 1.018 1.439.587.305 1.145.222 1.66.087 1.699-.443 3.528-.764 5.387-.116zm22.999 6.417c-1.899.077-2.508.684-2.609 2.596l-.008.21c-.008.259-.017.503-.093.691-.595 1.443-.043 2.696.574 3.73.297.498.779.796 1.321.82h.066c.535 0 1.05-.275 1.39-.747.685-.955 1.457-2.118 1.989-3.499.4-1.043.335-2.055-.182-2.776-.506-.705-1.378-1.076-2.448-1.025zm-4.319-5.569c.416-.143.858-.16 1.379-.18.4-.016.802-.02 1.206-.024 1.061-.01 2.159-.022 3.21-.247 1.535-.33 2.72-.097 3.84.754.202.154.423.233.64.233.133 0 .264-.03.39-.09.386-.186.626-.628.64-1.183l.001-.065-.023-.061c-.01-.023-.017-.054-.028-.09-.041-.146-.104-.368-.245-.553-.766-1.008-1.745-2.06-3.2-2.224-1.156-.13-2.319 0-3.443.127-.613.069-1.247.14-1.865.166-.375.016-.762.103-1.136.187-.487.11-.993.224-1.48.184a1.854 1.854 0 0 0-.673.075c-.434.13-.856.517-1.102 1.011-.21.42-.257.854-.132 1.192.224.601.756 1.226 2.021.788zm-18.873 5.146c-.548-.105-1.062.016-1.411.333-.984.894-1.35 2.197-1.578 3.354-.236 1.2.239 2.504.735 3.62.478 1.077 1.294 1.56 2.642 1.56h.053c.965 0 1.553-.563 1.848-1.77.477-1.943.213-3.907-.805-6.007-.265-.547-.833-.964-1.484-1.09zM48.052 93.333c-.661.736-.19 1.438-.035 1.669.331.496.776.749 1.283.749.323 0 .673-.103 1.034-.311.603-.349 1.07-.516 1.678-.337.343.101.683.053.93-.132.246-.185.381-.484.382-.844 0-.577.266-.858 1.014-1.074.25-.07.5-.133.75-.196.294-.073.587-.146.877-.233.752-.226.759-.704.697-.969-.1-.421-.452-.665-.97-.668-.124-.01-.22.017-.331.038-.08.014-.158.031-.216.027-1.064-.02-2.068.267-3.034.546-.378.11-.756.218-1.138.309-.27.063-.33.037-.334.035-.001 0-.057-.05-.09-.343-.307-2.78-.404-5.259-.299-7.576.025-.54.038-1.082.051-1.625.048-1.97.097-4.007.73-5.925.128-.392.223-.796.316-1.187.238-1.008.463-1.96 1.216-2.672.202-.192.817-.774.357-1.622l-.037-.066c-.26-.481-.62-1.135-1.438-1.072-.752.017-1.265.368-1.612 1.105-1.131 2.395-1.745 4.988-1.826 7.708l-.02.632c-.125 4.12-.254 8.382.389 12.562.102.666.005 1.106-.324 1.472zm59.813 21.924l-.026-.273c-.108-1.16-.22-2.357-.698-3.468a1.36 1.36 0 0 0-1.752-.752c-.489.187-1 .639-.654 1.731.052.166.079.34.107.515.026.158.052.317.092.472.272 1.059.119 1.452-.659 1.682-.315.094-.546.387-.715.6-.878 1.11-1.852 2.176-2.795 3.207-1.03 1.127-2.096 2.291-3.05 3.53-.202.262-.45.495-.714.74-.125.118-.25.236-.37.356-.27.268-.396.157-.472.092l-.113-.1c-1.097-.952-2.133-1.853-2.078-3.378l.02-.53c.067-1.924.138-3.913.474-5.833.541-3.094.936-5.668 1.243-8.103.098-.78.106-1.569.114-2.33.009-.931.019-1.894.197-2.821.38-1.97.345-3.985.31-5.934l-.008-.525c-.017-1.05.071-2.089.164-3.188.041-.49.083-.985.116-1.485v-.024l-.105-1.364c-.09-1.158-.18-2.356-.303-3.54-.083-.812-.368-1.396-.87-1.788-.56-.437-1.184-.491-1.76-.152-.53.31-.69.858-.43 1.465.873 2.045.926 4.298.862 6.233-.078 2.405-.055 4.847-.033 7.207l.007.687c.011 1.293-.16 2.587-.325 3.837-.14 1.062-.286 2.16-.321 3.265-.06 1.828-.422 3.67-.772 5.451-.231 1.174-.47 2.387-.623 3.596l-.083.646a2.057 2.057 0 0 0-.108-.26c-.713-1.434-1.02-2.69-.964-3.956.016-.352-.074-.623-.267-.804-.19-.178-.456-.251-.79-.214l-.069.014c-.098.033-.213.048-.33.065-.408.059-1.169.17-1.14 1.131.05 1.756.513 3.385 1.374 4.842.317.537.691.807 1.117.807.19 0 .391-.054.603-.162a1.3 1.3 0 0 0 .392-.302c-.178.963-.443 1.935-.923 2.811-.863 1.574-.664 3.037-.356 4.259.115.453.384 1.515 1.395 1.603.621.053.945.344 1.394.934a3.887 3.887 0 0 0 3.042 1.502h.032c1.122-.01 2.135-.555 2.853-1.534.362-.495.713-1 1.065-1.505 1.04-1.493 2.115-3.038 3.49-4.285.327-.297.573-.675.79-1.04.822-1.377 1.66-2.213 2.715-2.71.248-.116.762-.358.708-.92zM87.19 158.744c-1.83-.643-3.377-.242-4.929.528.06.007.12.016.18.026 1.193.195 1.767 1.05 2.273 1.806.113.169.226.337.345.497a28.332 28.332 0 0 0 3.807 4.208c1.758 1.58 3.286 2.841 5.025 3.854 3.782 2.204 7.612 3.17 11.387 2.87 3.12-.249 6.081-1.21 8.804-2.855 2.132-1.29 3.507-3.107 4.57-4.716.806-1.215 1.561-2.7 2.246-4.41.348-.869.823-1.659 1.283-2.423.404-.67.82-1.364 1.136-2.09l.08-.185c.222-.508.451-1.033.37-1.165-.086-.138-.592-.23-1.506-.278-1.398-.07-2.765-.114-4.11.138-.439.083-.85.231-1.291.467-1.391.74-2.949.895-4.759.471-.823-.193-1.22-.828-1.57-1.389a10.687 10.687 0 0 0-.225-.35c-.07-.1-.143-.198-.217-.294-.384-.508-.864-1.14-.392-2.096.089-.18.08-.447.07-.73a7.425 7.425 0 0 1-.005-.363l-.145.191c-.426.564-.736 1.153-.898 1.702-.246.833-.678 1.566-1.095 2.275-.433.736-.842 1.43-1.057 2.222-.073.269-.26.488-.432.672-.267.289-.624.379-.957.24a.8.8 0 0 1-.457-.477.749.749 0 0 1 .051-.61c.249-.447.395-.937.55-1.456.19-.637.385-1.295.787-1.885l.12-.172c.144-.2.293-.405.307-.567.057-.612.19-1.18.38-1.715-2.097 2.614-5.06 4.202-9.046 4.852l-.061.006c-2.36.931-4.544.211-6.553-.707-.293-.134-.554-.313-.806-.485a6.597 6.597 0 0 0-.595-.378c.033.247.087.494.142.748.138.637.281 1.295.092 2.02-.228.868-.721 1.56-1.355 1.896a1.883 1.883 0 0 1-1.544.107zm-19.697-82.55c.031-.24.061-.466.053-.67.029-.647-.153-1.2-.344-1.784-.162-.494-.33-1.005-.36-1.556l-.006-.138c-.014-.307-.04-.879-.193-1.016-.009-.008-.018-.017-.051-.017h-.013c-.273.017-.342.533-.394 1.107l-.022.226a59.393 59.393 0 0 0-.256 3.321c-.014.29-.135.56-.242.796-.177.392-.235.568-.101.736.122.154.353.18.718.206.294.02.627.044.926.199.013.005.056.013.085.019.128.022.196.006.214-.002-.007 0-.005-.032-.017-.085-.11-.48-.05-.938.003-1.342zm40.011 72.616a.883.883 0 0 1 .185.266c.491-.82 1.082-1.573 1.665-2.316.362-.461.736-.939 1.075-1.42.948-1.344 1.984-2.651 2.985-3.916 1.022-1.29 2.078-2.624 3.039-3.993.394-.562.776-1.134 1.158-1.705.47-.702.956-1.428 1.46-2.127a2.74 2.74 0 0 0 .431-.899c.203-.752.573-1.305 1.097-1.641 1.076-.69 1.315-1.722 1.515-2.998.055-.352.09-.71.124-1.068.079-.816.161-1.661.486-2.474.127-.317.271-.787.24-1.222-.12-1.695.226-3.325.562-4.902.133-.622.265-1.245.37-1.87.1-.602.21-1.203.322-1.803.289-1.564.588-3.182.676-4.773.03-.54.096-1.083.16-1.608.111-.902.215-1.753.154-2.61-.189-2.606.425-5.082 1.018-7.477.14-.563.28-1.126.409-1.693.134-.585.404-1.087.664-1.573.293-.547.57-1.063.642-1.665.039-.326.28-.895 1.466-1.038 1.016-.123 1.63-.62 1.882-1.52.072-.26.218-.46.347-.637.055-.077.112-.154.16-.235 1.107-1.889 1.186-3.362.261-4.926-.455-.77-1.006-1.43-1.598-2.078.067.276.022.59-.15.918-.404.77-.286 1.556.38 2.546.594.881.306 1.646.052 2.32l-.06.162c-.163.443-.608.71-1.162.71-.067 0-.136-.004-.207-.013-.55-.062-.96-.39-1.222-.973-.356-.796-.45-1.637-.532-2.378-.026-.225-.05-.445-.081-.655l-.003-.025v-.025c.009-1.103.252-1.991.767-2.795.382-.598.936-.798 1.5-.561a.787.787 0 0 1-.032-.034c-.302-.317-.604-.634-.897-.961-.035-.039-.053-.046-.053-.046-.03.005-.133.084-.196.13a2.464 2.464 0 0 1-.142.103c-.998.655-1.637.244-1.997-.215-.383-.487-.963-1.225-.162-2.141.477-.546.485-.98.028-1.452-.477-.49-.84-1.293-.576-1.978.226-.587.19-1.188.153-1.824-.027-.444-.054-.903.01-1.371.03-.227.067-.455.103-.684.115-.735.233-1.493.198-2.258-.026-.57-.129-1.117-.238-1.695-.108-.576-.22-1.171-.247-1.786-.065-1.438-.089-3.142.229-4.87.083-.451.168-.916-.067-1.154-1.06-1.073-1.148-2.374-1.233-3.632-.025-.369-.05-.737-.1-1.097a78.106 78.106 0 0 0-1.018-5.594c-1.134-1.36-1.852-2.951-2.546-4.49-.252-.558-.504-1.116-.774-1.663l-.19-.374c-.314-.615-.64-1.252-.768-1.94-.207-1.097-.918-1.728-2.177-1.929-.785-.125-1.51-.41-2.212-.687-.792-.31-1.54-.606-2.358-.682l-.101-.01c-.094-.01-.234-.025-.275-.01.002.002-.019.034-.036.124-.284 1.512-1.663 1.387-2.117 1.346-1.683-.151-3.162.355-4.526 1.552-.914.802-1.785 1.218-2.743 1.309-.271.026-.458.052-.572.17-.868.904-1.908.84-2.81.658a7 7 0 0 0-2.661-.035c-1.864.355-3.528-.111-4.91-.614a8.395 8.395 0 0 0-2.004-.472c-1.22-.124-2.19-.688-2.885-1.677-.156-.223-.3-.347-.429-.37-.113-.02-.26.035-.435.16-.503.356-1.038.399-1.432.111-.264-.191-.547-.358-.846-.535-.738-.435-1.502-.884-1.967-1.738a.99.99 0 0 0-.088-.139 1.12 1.12 0 0 0-.114.13c-.135.177-.291.324-.443.467a8.235 8.235 0 0 0-.172.164c-.718.713-1.389 1.045-2.048 1.021-.658-.025-1.296-.407-1.952-1.167-.066-.076-.147-.171-.182-.183-.004.008.013.108.024.168.265 1.595-.293 2.738-1.704 3.524-.517.288-.68.885-.853 1.517-.078.283-.157.574-.272.848-.477 1.143-.674 2.389-.866 3.594-.084.534-.17 1.069-.277 1.597-.177.87-.199 1.735-.065 2.501.104.589-.157 1.056-.776 1.388-.989.531-1.422 1.56-1.053 2.502.486 1.238.48 2.463.435 3.513-.078 1.884-.445 3.725-.847 5.601-.213 1.001-.281 2.066-.336 3.16-.02.362-.042.724-.064 1.088-.116 1.905-.237 3.875.227 5.783.149.609.168 1.241.188 1.853.008.268.017.534.036.799.022.305-.073.594-.275.837-.176.212-.351.428-.525.643-.406.5-.826 1.019-1.273 1.503-.654.708-1.365.35-1.835.114-.106-.054-.211-.107-.315-.15-.264-.106-.634-.205-.892-.067-.188.101-.32.329-.39.676a.936.936 0 0 0-.018.124c.025-.004.061.007.126.013.876.08 1.765.604 2.441 1.44.693.855 1.029 1.865.921 2.77-.028.246-.116.992-.795 1.178-.38.104-.891.04-1.165-.865-.31-1.024-.994-1.75-2.22-2.359a1.094 1.094 0 0 0-.142-.06c-.01.028-.024.07-.042.135-.346 1.282 1.082 4.67 2.246 5.331.117.068.39.22.483.19.034-.012.094-.085.152-.249.127-.357.435-.623.845-.732.094-.025.19-.047.284-.07.625-.145.957-.247 1.094-.8a.692.692 0 0 1 .391-.451 1.04 1.04 0 0 1 .879-.005c.57.264.487.868.46 1.067a1.021 1.021 0 0 1-.104.387c-1.07 1.9-.866 3.87-.65 5.96.082.784.166 1.596.173 2.393.015 1.597.264 3.227.504 4.803.145.956.296 1.945.395 2.925.276 2.727.872 5.462 1.448 8.107l.217.998c.287 1.33.716 2.644 1.132 3.915.294.9.598 1.831.85 2.762.339 1.249.812 2.474 1.27 3.66.462 1.197.94 2.434 1.286 3.709.55 2.027 1.344 4.04 2.432 6.154a306.486 306.486 0 0 1 2.437 4.879c.754 1.53 1.508 3.061 2.285 4.58.118.23.233.471.349.715.437.916.889 1.864 1.58 2.365 1.075.78 1.801 1.834 2.503 2.854.744 1.08 1.446 2.1 2.521 2.794 1.111.716 2.315 1.094 3.484 1.094h.008c1.36-.002 2.756-.222 4.107-.436l.463-.073c2.378-.37 4.378-1.728 6.312-3.041.102-.07.173-.136.247-.203.256-.231.79-.711 1.292-.198zm-47.879 16.41l1.463-.45c2.664-.816 5.418-1.66 8.017-2.767.541-.23 1.1-.41 1.64-.585.788-.254 1.531-.493 2.238-.876 1.173-.636 2.317-1.12 3.401-1.442 1.398-.413 2.63-.99 3.762-1.76 1.363-.927 2.91-1.975 4.935-1.74.398.046.758.162 1.105.275.238.077.474.154.718.205.4.083.496.007.496.007.001-.001.058-.098-.07-.454-.118-.328-.262-.644-.414-.978l-.167-.37c-.357-.808-.729-2.02.167-3.22.07-.095.107-.159.127-.2l-.017-.003c-1.139-.244-1.599-1.117-2.005-1.887l-.14-.264a308.479 308.479 0 0 1-4.05-7.646l-.4-.784c-1.935-3.794-3.936-7.717-5.409-11.817-.219-.61-.41-1.228-.602-1.847-.428-1.38-.87-2.81-1.629-4.086a8.344 8.344 0 0 1-.34-.657l-.021-.055c-.777-2.832-2.135-9.242-3.034-13.483-.285-1.345-.545-2.572-.711-3.325-.475.918-1.022 2.327-1.092 2.77l-.092.63-.061.073c-.155.181-.324.49-.246.93l.07.374-.013.063a8.162 8.162 0 0 1-.362 1.261c-.162.415-.334.825-.506 1.237-.497 1.19-1.01 2.42-1.27 3.693-.131.632-.228 1.288-.323 1.922-.149 1.007-.303 2.049-.594 3.045a56.727 56.727 0 0 0-.551 2.091c-.372 1.486-.757 3.023-1.404 4.494-.6 1.36-1.048 2.82-1.483 4.23-.415 1.351-.845 2.748-1.412 4.085-.393.927-.763 1.865-1.133 2.804-.635 1.608-1.291 3.27-2.057 4.854-.728 1.504-1.345 3.082-1.942 4.609-.205.524-.41 1.047-.62 1.57-.275.687-.548 1.377-.82 2.067-1.464 3.704-2.977 7.533-5.062 11.047-.049.08-.099.198-.068.297l.04.12-.053.116a1.4 1.4 0 0 0-.11.358c-.033.207-.078.42-.14.669a1.2 1.2 0 0 1 .505.904c.015.208.024.416.032.624l.003.1 2.011.316c1.334.211 2.594.41 2.796.43 1.862.191 3.62-.433 5.317-1.036a40.302 40.302 0 0 1 1.58-.537zm59.894-13.902c1.802 0 3.599.318 5.365.63 2.7.479 5.494.972 8.247 1.052 1.941.057 3.752-.062 5.384-.353 1.354-.241 2.74-.38 4.082-.514 1.81-.18 3.68-.368 5.475-.81a66.634 66.634 0 0 1 2.18-.488c.395-.084.79-.168 1.186-.256.265-.059.431-.143.492-.25.06-.106.052-.286-.026-.534l-.137-.439c-.426-1.377-.83-2.679-1.767-3.8-.45-.538-.685-1.23-.912-1.9-.083-.246-.167-.492-.26-.729-1.516-3.806-3.41-8.271-5.962-12.526-.288-.48-.561-.97-.834-1.46-.676-1.215-1.374-2.47-2.305-3.53-.167-.191-.232-.371-.192-.537.204-.854-.203-1.52-.633-2.223-.228-.374-.464-.76-.617-1.186-.05-.14-.135-.28-.225-.43-.127-.21-.259-.427-.322-.685-.428-1.76-1.084-3.484-1.719-5.152-.535-1.408-1.09-2.865-1.51-4.348-.172-.604-.47-1.172-.788-1.772-.357-.677-.726-1.378-.912-2.155-.213-.887-.494-1.777-.765-2.638-.41-1.298-.834-2.64-1.045-4.03-.102-.67-.379-1.287-.672-1.939a.673.673 0 0 0-.07-.126c-.01.014-.064.04-.164.105-.46.3-.788.767-.977 1.39-.68 2.24-1.219 4.273-.898 6.437.034.239.009.498-.07.713-.516 1.406-.571 2.852-.63 4.382a52.85 52.85 0 0 1-.05 1.116c-.045.788-.25 1.537-.448 2.261-.18.654-.348 1.27-.41 1.917-.09.937-.322 1.85-.546 2.73-.171.68-.349 1.38-.459 2.08-.372 2.386-.893 4.785-1.397 7.104-.158.729-.316 1.457-.47 2.186-.515 2.44-1.791 4.44-3.026 6.376l-.085.134c-.232.365-.55.658-.856.941-.137.126-.273.252-.4.384-.575.593-1.067 1.281-1.543 1.947-.3.419-.61.851-.94 1.26-.446.556-.95 1.074-1.437 1.576-.532.548-1.08 1.114-1.55 1.722a307.23 307.23 0 0 1-1.72 2.2c-.438.555-.882 1.12-1.325 1.69.407-.022.903.14 1.075 1.021.106.546.45.971.813 1.422.25.309.507.629.7 1.002.154.299.656.313 1.008.14 1.68-.828 3.376-1.108 5.067-1.108zm33.53 25.035c.975 1.16 2.309 1.935 3.48 2.02 1.002.072 1.652.412 2.34.772.149.078.302.158.464.238 1.95.968 4.036 1.764 6.053 2.533.725.277 1.451.554 2.173.839.22.087.463.137.72.191.438.092.89.187 1.292.474.862.62 1.85.871 2.897 1.138.601.153 1.223.311 1.817.545.107.042.217.075.329.104l.128.068c.617.524 1.658.802 2.373.279 1.657-1.213 2.256-3.134 2.656-5.03l.026-.124.105-.074c.09-.063.213-.193.245-.572.02-.231.099-.48.237-.742v-.001c1.077-2.04.989-4.202.896-6.49l-.024-.626c-.055-1.517-.517-2.988-.963-4.41a39.549 39.549 0 0 1-.573-1.944c-.335-1.293-.958-2.506-1.56-3.68l-.138-.266c-1.108-2.164-2.455-4.442-4.24-7.17-.267-.408-.53-.82-.793-1.232-.546-.854-1.11-1.737-1.701-2.57-.69-.968-1.284-2.01-1.86-3.017-.769-1.347-1.565-2.738-2.578-3.938-.862-1.02-1.775-2.251-1.706-3.96.004-.076-.067-.237-.166-.338-.622-.639-1.132-1.365-1.625-2.068-.436-.623-.889-1.267-1.41-1.832a14.342 14.342 0 0 1-2.069-2.847c-.694-1.276-1.57-2.467-2.416-3.62-.667-.906-1.356-1.845-1.962-2.828-.398-.647-.847-1.286-1.28-1.903-.739-1.054-1.503-2.143-2.076-3.343-.257-.538-.495-.925-.885-1.197-.644-.445-.782-1.077-.414-1.879.064-.137.138-.27.213-.402.144-.258.281-.5.315-.775.13-1.047.29-2.082.443-3.044.075-.467.192-1.001.634-1.44 1.32-1.315 2.338-2.86 3.352-4.459 1.667-2.63 2.198-5.45 1.579-8.382-.106-.502-.207-1.005-.308-1.51-.258-1.295-.526-2.634-.885-3.909-.29-1.024-.642-2.062-.983-3.067-.18-.532-.36-1.065-.534-1.599-.605-1.867-1.27-3.75-1.913-5.572-.245-.694-.49-1.387-.733-2.082a4.045 4.045 0 0 1-.106-.397c-.126-.535-.206-.615-.351-.61-.169.01-.231.014-.215.6.004.139.007.276-.004.398-.006.073-.02.146-.035.219-.015.072-.03.14-.025.183.04.416.007.82-.023 1.209-.041.514-.08 1 .036 1.51.208.921.646 1.72 1.11 2.567.43.785.874 1.597 1.122 2.515.285 1.057.037 1.603-.52 2.242-.517.594-1.02.68-1.35.647-.52-.051-.99-.417-1.355-1.057-.393-.685-.483-1.397-.569-2.084a8.595 8.595 0 0 0-.168-1.016c-.16-.647-.378-1.298-.588-1.926-.353-1.057-.717-2.15-.847-3.306-.068-.604-.125-1.209-.182-1.813-.125-1.34-.255-2.724-.512-4.066-.196-1.027-.663-1.938-1.43-2.786-.19-.21-.58-.277-.827-.208-.077.021-.135.057-.141.087-.078.412-.212.808-.343 1.192-.3.877-.582 1.705-.17 2.646.632 1.439.901 3.007 1.16 4.522l.089.51c.097.559.172 1.122.247 1.684.232 1.744.451 3.392 1.321 4.92.224.394.231.918.02 1.404-.196.45-.538.772-.916.862-.673.16-1.405-.232-1.863-.65-.55-.5-.835-1.12-.762-1.655.07-.502.126-1.093.017-1.659-.188-.972-.334-1.965-.476-2.925-.243-1.654-.495-3.364-.966-5-.98-3.405-2.084-6.69-3.284-9.762a3.71 3.71 0 0 1-.112-.371c-.038-.148-.119-.453-.19-.506-.229.073-.356.546-.458.926-.03.117-.061.23-.094.334.004 0 .014.05.02.084.019.088.041.197.027.32-.073.608-.082 1.244-.091 1.86-.018 1.366-.038 2.78-.739 4.113-.2.379-.155.759.147 1.271.576.98.872 2.065 1.158 3.115.19.699.313 1.401.432 2.08.08.463.16.926.261 1.385.23 1.043.393 2.115.551 3.151l.013.088c.061.402-.008.75-.2 1.005-.127.17-.374.383-.831.443-.96.13-1.176-.654-1.277-1.029a52.707 52.707 0 0 1-.475-1.949c-.28-1.219-.571-2.479-1.025-3.661a4.832 4.832 0 0 1-.214-.832c-.07-.36-.135-.7-.311-.986a1.878 1.878 0 0 1-.078-.143 2.837 2.837 0 0 0-.044-.083c-1.1.953-1.983.062-2.36-.321-.217-.218-.24-.198-.355-.101a.258.258 0 0 0-.074.083c.004.036.086.153.136.223l.039.057c.466.673 1.02 1.317 1.592 1.972 1.351 1.549 1.271 3.237 1.09 4.698l-.033.249c-.102.736-.19 1.371.47 1.821a.87.87 0 0 1 .344.677c-.01.693.118 1.365.254 2.075.12.634.247 1.29.264 1.965.061 2.275.486 4.555.897 6.76l.151.815c.03.166.1.556.185.631.72.401.701.977.685 1.485l-.004.169c-.007.461-.018 1.16-.824 1.414-.837.267-1.268-.44-1.43-.705a7.076 7.076 0 0 1-.444-.867c-.513-1.185-.734-2.445-.947-3.664-.15-.86-.307-1.748-.564-2.59-.288-.949-.483-1.948-.671-2.912-.109-.554-.216-1.108-.343-1.656a1.092 1.092 0 0 0-.045-.157 1.726 1.726 0 0 0-.173.139c-.97.863-.993 1.861-.715 3.192.172.817.522 1.547.894 2.32.292.607.595 1.235.8 1.909.166.544.32 1.093.473 1.642.428 1.532.87 3.116 1.597 4.561.093.186.18.375.265.565l.149.323-.02.104c-.088.455.018.91.314 1.351.318.474.62 1.02.95 1.72.674 1.432 1.131 2.941 1.49 4.23.075.431.171.778.3 1.092.361 1.313.72 2.63 1.196 3.875a30.703 30.703 0 0 0 1.975 4.222l.043.077v.087a1.992 1.992 0 0 1-.183.815c.039.052.08.11.11.173.728 1.52 1.543 3.032 2.332 4.494 1.152 2.134 2.344 4.34 3.294 6.634.46 1.111.936 2.216 1.412 3.32.31.72.62 1.438.925 2.16.028.067.055.138.08.209.117.32.173.417.316.44.213.035.414.103.616.208l.092.047.047.093c.36.7.736 1.449 1.049 2.24.234.595.43 1.192.622 1.769.444 1.343.863 2.611 1.695 3.758l.097.134-.052.16c-.126.383-.017.822.341 1.38.065.1.134.196.203.293.187.264.38.538.507.88.32.87.74 1.724 1.144 2.549.505 1.03 1.027 2.094 1.382 3.228.187.596.418 1.198.641 1.78.371.97.756 1.973.963 3.008.104.52.28 1.004.468 1.518.192.525.39 1.069.502 1.65.112.583.265 1.382.69 1.944.544.715.922 1.56 1.19 2.659.182.742.44 1.247 1.162 1.468.49.151.676.43.745.64.073.22.089.577-.246 1.036l-.119.166c-.363.512-.818 1.15-1.676 1.065-.71-.067-1.721-.288-2.298-1.422-.426-.84-.706-1.728-.976-2.587-.091-.29-.182-.58-.279-.867l-.37-1.091c-.55-1.61-1.12-3.272-1.502-4.958-.44-1.948-1.075-3.988-1.997-6.422l-.032-.088c-.276-.73-.56-1.48-1.053-2.218-.15.348-.331.663-.509.97-.244.426-.475.827-.582 1.26-.155.623-.334 1.24-.512 1.856-.349 1.202-.71 2.445-.869 3.705-.08.627-.22 1.245-.357 1.843-.152.668-.31 1.36-.377 2.053-.143 1.468-.138 3.016.86 4.395.442.61.883 1.445.362 2.49-.161.323-.147.523.054.762zm30.852-1.19c-.347.356-.515.821-.498 1.381a18.884 18.884 0 0 1-.234 3.59l-.014.084-.052.067c-.29.367-.437 1.102-.35 1.749l.009.064-.016.062a24.509 24.509 0 0 1-.525 1.732l-.043.082c-.25.353-.36.817-.469 1.266l-.02.065c-.174.432-.355.861-.548 1.288l-.042.068c-.359.45-.848.712-1.496.8l-.11.013c-.315.037-.369.056-.418.23-.142.505-.41.87-.795 1.084-.42.234-.953.269-1.54.101-2.728-.781-5.625-1.644-8.426-2.847-.303-.13-.625-.206-.965-.287-.46-.109-.935-.221-1.363-.477-1.087-.649-2.297-1.092-3.466-1.52-.912-.334-1.855-.68-2.75-1.124l-.06-.03c-.11-.056-.217-.11-.33-.153-.642-.241-1.195-.447-1.398-.351-.202.097-.393.686-.595 1.309-.13.399-.289.89-.747 1.118-.499.25-.955.562-1.437.892-.877.602-1.783 1.223-2.956 1.429-1.112.195-2.109.686-3.165 1.205-.765.377-1.556.766-2.394 1.031-1.627.515-1.627.515-1.398 2.216.153 1.143.318 2.285.483 3.426.246 1.709.501 3.476.713 5.22.11.907.167 1.83.223 2.723.052.845.106 1.718.205 2.568.11.954.267 1.922.42 2.86.15.928.304 1.888.416 2.84.236 2.003.42 4.045.598 6.018l.133 1.466c.036.398.179.77.33 1.166.113.296.23.603.304.93l.025.102c.072.298.224.917-.39 1.178a.834.834 0 0 1-.33.073.627.627 0 0 1-.247-.05c-.296-.123-.418-.434-.507-.662l-.036-.09c-.971-2.346-1.439-4.762-1.393-7.183.01-.45-.149-.868-.302-1.273l-.048-.126c-.364-.978-.432-1.978-.498-2.945l-.03-.432c-.005-.046-.006-.094-.007-.142a.76.76 0 0 0-.022-.206c-.74-1.606-.84-3.319-.936-4.975-.026-.444-.051-.887-.09-1.328-.281-3.268-.731-6.258-1.373-9.139-.049-.216-.092-.433-.137-.65-.11-.55-.215-1.07-.39-1.584-.215-.633-.543-.873-1.1-.807-1.902.227-3.755.14-5.663-.27a1.4 1.4 0 0 0-1.276.348c-.316.297-.742.344-1.09.118-.434-.281-.368-.744-.332-.992.085-.593.332-1.402 1.477-1.584a12.14 12.14 0 0 1 4.09.025c1.492.264 2.832.144 4.095-.366.432-.175.885-.22 1.323-.264.283-.03.55-.056.809-.115 1.175-.266 2.254-.822 3.297-1.359.41-.211.821-.422 1.24-.619.408-.19.83-.337 1.24-.478.587-.202 1.143-.393 1.65-.707.084-.051.151-.097.209-.142l.085-.067.108-.003c.857-.022 1.69-.658 1.935-1.481l.114-.382.351.187a.74.74 0 0 0 .078.037c.004-.013.015-.036.028-.07.04-.107.104-.229.173-.356.07-.13.216-.402.195-.484-.002 0-.026-.017-.076-.035a4.826 4.826 0 0 1-1.07-.538l-.092-.091a2.035 2.035 0 0 0-.961-.77l-.101-.063-.232-.212c-.42-.382-.815-.744-1.262-1.046-1.198-.811-2.768-2.168-2.57-4.587.04-.473-.021-.957-.086-1.47-.06-.476-.122-.969-.1-1.463a27.4 27.4 0 0 1 .775-5.211c.16-.654.318-1.31.475-1.965.337-1.401.673-2.803 1.036-4.198.41-1.58 1.027-3.385 2.484-4.802.318-.31.35-.583.11-.913l-.055-.074a2.86 2.86 0 0 1-.233-.348c-.555-1.028-.555-1.028-1.694-.589-2.419.934-5.095 1.524-8.478 1.877-.637.066-1.274.136-1.911.206-1.926.212-3.918.431-5.886.543-2.098.12-4.21-.088-6.253-.288a108.8 108.8 0 0 0-2.246-.206c-.644-.048-.934.105-1.136.615l-.069.172c-.513 1.294-1.044 2.631-1.827 3.838-.554.855-.95 1.82-1.335 2.755-.393.956-.799 1.944-1.378 2.84-.191.297-.38.596-.568.896-1.16 1.842-2.357 3.748-4.345 4.94l-.608.365c-2.014 1.217-4.098 2.475-6.518 2.999-2.786.602-6.085 1.08-9.434.056-.492-.15-1.017-.265-1.524-.376-.629-.137-1.278-.279-1.902-.494-1.416-.486-2.65-1.307-3.844-2.1a34.954 34.954 0 0 0-1.688-1.078l-.43-.25c-.504-.288-1.025-.586-1.501-.943-1.465-1.1-2.676-2.482-3.846-3.82l-.196-.222c-.43-.49-.854-.987-1.278-1.484-.5-.586-1-1.17-1.51-1.747-.101-.113-.255-.205-.418-.304-.095-.057-.19-.114-.28-.176-.536-.377-.695-.913-.448-1.491l-.111.064c-1.484.876-3.113 1.542-4.98 2.036-.716.189-1.538.428-2.249.873-1.229.77-2.592 1.159-3.911 1.535-.347.1-.694.199-1.039.304-.891.274-1.777.573-2.66.872-.635.214-1.269.428-1.905.633l-2.934.84c-.81.195-1.616.438-2.396.673-1.921.578-3.912 1.17-6.024 1.121-.333-.01-1.92-.269-4.72-.773.035 5.393-.98 10.633-2.086 15.503-.832 3.658-1.683 7.403-3.803 10.495 2.678.196 11.112.461 11.562.472.407.01.8-.007 1.209-.05.221-.262.527-.398.903-.385a38.17 38.17 0 0 0 10.963-1.157c.433-.108.852.003 1.15.31.323.33.452.828.328 1.266-.111.396-.417.684-.84.792a41.094 41.094 0 0 1-8.875 1.248c-1.038.563-2.24.864-3.575.892-.352.009-1.507-.018-3.108-.055-3.701-.083-10.591-.24-11.437-.007-.71.196-1.529-.401-1.927-1.094a43.609 43.609 0 0 1-11.906-3.625c-.613.127-1.254.02-1.91-.113-.367-.074-.762-.095-1.18-.118-.944-.05-1.92-.101-2.623-.8-.545-.542-1.144-1.062-1.725-1.566-1.619-1.404-3.293-2.857-4.148-5.044-.189-.484-.684-.855-1.065-1.082a1.905 1.905 0 0 1-.909-1.626c.01-.506.255-.926.673-1.153 1.126-.613 1.47-1.662 1.832-2.772.104-.317.207-.63.326-.929.386-.965.735-1.968 1.074-2.939.606-1.741 1.234-3.542 2.108-5.228a4.39 4.39 0 0 0 .136-.296c.116-.268.236-.545.456-.762.771-.763 1.415-1.665 2.037-2.538.4-.56.814-1.141 1.263-1.688.306-.371.618-.74.932-1.108 1.184-1.392 2.41-2.832 3.202-4.483.37-.77.76-1.529 1.151-2.287.376-.73.752-1.459 1.108-2.197 1.034-2.142 1.774-3.958 2.33-5.715.513-1.621 1.312-3.114 2.084-4.558l.423-.794c.432-.818 1.085-1.554 2.057-2.317l.128-.1c.655-.51 1.222-.952 1.258-1.782.012-.26.166-.485.31-.676 1.197-1.586 2.093-3.394 2.958-5.143.498-1.005 1.012-2.043 1.581-3.036.31-.541.652-1.07.984-1.583.46-.712.937-1.448 1.318-2.207 1.759-3.503 3.472-7.277 3.432-11.518-.006-.653-.095-1.166-.28-1.616a6.67 6.67 0 0 0-.096-.221c-.204-.455-.483-1.074.065-1.714a.494.494 0 0 0-.075-.108c-.634-.716-.944-1.575-1.244-2.406l-.091-.252a226.23 226.23 0 0 0-1.726-4.52l-.567-1.453a1.476 1.476 0 0 0-.067-.143c-.102-.2-.256-.504-.077-.833.36-.663.222-1.352.077-2.082-.03-.15-.06-.301-.086-.45-.242-1.416-.196-2.645.14-3.757.567-1.88.37-3.771.178-5.6-.086-.816-.056-1.635-.026-2.426.028-.765.058-1.556-.023-2.322-.045-.44.19-.807.362-1.076.396-.618.562-1.11.556-1.645a1.614 1.614 0 0 1 .808-1.456c.474-.283.935-.328 1.298-.124.357.2.557.61.561 1.15a5.964 5.964 0 0 1-.414 2.22c-.577 1.476-.769 3.073-.59 4.88.116 1.17.068 2.367.023 3.523-.014.324-.027.65-.036.973-.022.77-.059 1.538-.095 2.308-.05 1.04-.1 2.116-.114 3.171-.008.621.284 1.214.591 1.842.307.628.497 1.287.68 1.925.14.484.283.984.47 1.446.144.349.277.703.41 1.057.564 1.495 1.095 2.907 2.301 3.992.965.869.62 1.975.344 2.865-.038.122-.076.243-.11.361a3.358 3.358 0 0 0-.122 1.323c.229 2.32-.107 4.128-1.056 5.692-.506.836-.818 1.832-1.01 3.229-.103.743-.497 1.356-.878 1.949-.207.323-.402.627-.553.949a55.72 55.72 0 0 1-1.008 2.013c-.24.466-.48.93-.712 1.401-.5 1.015-1.083 1.902-1.733 2.636-.468.53-.757 1.15-1.062 1.808-.197.423-.4.861-.657 1.274-.355.572-.67 1.193-.976 1.793-.458.9-.932 1.832-1.568 2.67-.185.244-.2.366-.197.407l.006.126-.079.097c-1.866 2.302-3.425 4.9-4.766 7.942l-.036.081-.073.052c-.23.167-.399.39-.53.7-.318.76-.624 1.527-.93 2.295-.687 1.723-1.397 3.505-2.254 5.185-.196.386-.387.774-.58 1.163-.742 1.504-1.51 3.06-2.563 4.46-.47.627-.947 1.25-1.422 1.874-1.947 2.558-3.962 5.202-5.629 8.002-1.106 1.858-1.737 3.934-2.164 5.534-.348 1.302-.8 2.801-1.776 4.109-.354.474-.63 1.17.383 2.362.392.461.68.972.958 1.466l.216.382c.249.427.633.754 1.04 1.1.24.204.488.415.713.653 1.095 1.159 2.467 2.379 4.339 2.642l.076.01c.26.039.485.07.667-.009 1.438-.63 2.798-1.06 4.042-1.278 2.102-.37 3.442-1.526 4.922-3.271.124-.145.208-.319.297-.503.132-.272.28-.58.58-.835a3.429 3.429 0 0 1 1.003-.595l.453-.174-.016.566c.017.731.104 1.481.188 2.206l.054.47-.286.063c-.064.014-.15.18-.207.29l-.036.069c-.158.296-.337.58-.515.865-.168.269-.337.537-.485.814-.745 1.398-2.028 1.916-3.062 2.211-1.081.309-2.015.603-2.899.973a40.21 40.21 0 0 0 9.7 2.666c2.774-3.09 3.675-7.31 4.547-11.393l.26-1.21c.807-3.694 1.716-8.564 1.637-13.652a7.54 7.54 0 0 1-.621.782c-1.052 1.14-1.745 2.53-2.415 3.876-.263.527-.526 1.054-.809 1.57-.288.523-.57 1.05-.853 1.577-.966 1.805-1.965 3.67-3.2 5.37-.277.382-.737.612-1.261.632-.533.022-1.05-.191-1.367-.565-.247-.292-.26-.55-.228-.717.045-.23.205-.428.454-.56.835-.443 1.23-1.234 1.646-2.072.128-.256.255-.511.394-.754 1.25-2.19 2.362-4.508 3.438-6.75l.383-.799c.38-.79.892-1.515 1.387-2.217.441-.626.898-1.272 1.25-1.954a.913.913 0 0 1 .428-.408c.163-.068.597-.25.633-.407.008-.036.012-.176-.27-.492-.392-.44.045-1.035.21-1.258 2.41-3.276 3.972-7.005 5.49-10.858.275-.697.547-1.396.82-2.094 1.12-2.878 2.28-5.854 3.626-8.705l.235-.492c.509-1.063 1.036-2.162 1.287-3.33.19-.883.61-1.659 1.016-2.409.355-.655.69-1.274.886-1.96.078-.274.167-.545.257-.816.186-.56.36-1.09.437-1.647.107-.786.39-1.508.662-2.206.182-.469.355-.912.48-1.374.685-2.526 1.081-5.162 1.466-7.71l.041-.276c.085-.56.134-1.141.182-1.703.097-1.156.198-2.351.61-3.502.128-.36.3-.69.466-1.01.203-.391.395-.761.51-1.173.314-1.138.516-2.106.638-3.047.03-.238.078-.508.255-.7.881-.958 1.304-2.124 1.752-3.36.135-.373.27-.746.42-1.114.168-.419.294-.851.427-1.308.261-.902.533-1.835 1.16-2.64a.724.724 0 0 0-.015-.266c-.247-1.08-.285-2.18-.321-3.242-.03-.83-.059-1.687-.19-2.512l-.036-.236c-.03-.195-.06-.39-.096-.583-.06-.324-.088-.325-.162-.326h-.006l-.002.08c0 .082-.001.176-.022.274l-.076.347c-.318 1.46-.619 2.838-.486 4.295.035.385-.176.777-.41 1.144-.33.525-.67 1.092-.85 1.748-.197.715-.7 1.075-1.378.99-.416-.051-.643-.25-.76-.409-.189-.254-.252-.604-.182-1.01.078-.461.082-.927.086-1.42.005-.666.011-1.353.215-2.035.148-.5.07-.807-.273-1.062-.314-.234-.46-.599-.445-1.114l.01-.341c.018-.663.036-1.325.045-1.987.003-.22.012-.801.529-1.091.21-.119.338-.236.36-.333.032-.148-.155-.41-.335-.662l-.068-.094c-1.473-2.082-2.017-4.04-1.711-6.162.188-1.313.75-2.408 1.292-3.467l.21-.41c.372-.737.535-1.495.657-2.204.224-1.319.296-2.681.365-4 .065-1.24.133-2.522.327-3.78.06-.384.246-.68.57-.903.137-.095.296-.146.436-.191.33-.106.327-.125.305-.276l-.039-.297c-.073-.589-.136-1.097-.57-1.462-.444-.375-.781-.538-1.007-.486-.215.05-.433.32-.649.804-.76 1.71-1.274 3.333-1.57 4.964-.337 1.845-.506 3.74-.67 5.571-.089 1.005-.179 2.008-.295 3.01-.128 1.101-.271 2.202-.414 3.304-.153 1.177-.306 2.353-.44 3.53a34.397 34.397 0 0 0-.15 2.113c-.045.891-.091 1.812-.227 2.718l-.016.105c-.037.253-.076.514-.163.77-.159.462-.562.707-1.016.625a.867.867 0 0 1-.593-.388.795.795 0 0 1-.091-.645c.188-.665.158-1.344.125-2.063-.017-.39-.036-.792-.016-1.194.025-.51-.011-1.028-.049-1.577a16.694 16.694 0 0 1-.059-1.453c.002-.083-.006-.17-.013-.257-.017-.208-.036-.444.04-.673.358-1.07.42-2.165.486-3.325.037-.638.074-1.298.166-1.948.217-1.535.32-3.119.422-4.65.046-.7.092-1.4.148-2.1l.025-.3c.167-2.093.34-4.258 1.25-6.275.108-.24.098-.339.094-.357-.003.004-.032-.005-.1-.005-.062 0-.16.007-.302.039-.944.21-1.711.865-2.348 2.005-1.425 2.552-2.193 5.139-2.348 7.905a205.712 205.712 0 0 1-.386 5.26 362.214 362.214 0 0 0-.238 3.011c-.055.75.008 1.491.074 2.277.066.773.133 1.572.077 2.375-.04.562-.123 1.206-.621 1.746l-.068.079c-.14.165-.433.51-.908.304-.421-.184-.655-.535-.64-.963.049-1.604.012-3.238-.022-4.818-.039-1.744-.079-3.547-.004-5.33.055-1.341.212-2.681.364-3.977.128-1.092.26-2.22.329-3.333.071-1.14.485-2.184.885-3.195.17-.431.347-.877.491-1.318.033-.102.087-.186.13-.254a.639.639 0 0 0 .058-.102c.193-1.943 1.562-2.878 2.886-3.783.18-.122.36-.245.536-.37 1.033-.735 2.123-.725 2.991.028.177.153.195.17.482-.14.901-.972 1.884-1.166 2.924-.575l-.003-.016c-.471-2.214-.506-4.482-.539-6.675l-.016-.986c-.012-.574.173-1.017.532-1.28.538-.397.615-.982.705-1.658.117-.89.28-1.769.435-2.62.223-1.215.454-2.472.55-3.72.031-.409.25-.69.443-.938.137-.175.255-.325.299-.501.105-.414.231-.823.358-1.233.331-1.077.645-2.093.583-3.198-.032-.59.178-1.166.644-1.76 1.336-1.705 1.883-3.094 1.828-4.645-.05-1.407.688-2.91 1.754-3.574.31-.193.605-.412.917-.643.56-.416 1.138-.846 1.822-1.127 1.197-.492 2.444-.855 3.65-1.206a72.451 72.451 0 0 0 1.768-.532c.264-.085.548-.213.868-.394 1.164-.658 1.841-.58 2.786.324.04.038.08.083.12.13l.06.068c.653-.43 1.381-.618 2.086-.8.69-.18 1.34-.35 1.903-.725.06-.04.127-.077.195-.115.057-.03.207-.112.212-.143.148-.91.832-1.241 1.382-1.508a5.95 5.95 0 0 0 .416-.215c.484-.286.987-.28 1.346.015 1.027.843 2.233.896 3.511.951.433.019.881.038 1.32.091.215.025.44.018.676.01.17-.005.34-.011.509-.005.05.002.105 0 .163 0 .293-.003.628-.007.806.234.404.55.697.45 1.32.176.214-.093.435-.19.673-.243 1.1-.244 1.953-.31 2.542.161.484.387.711 1.088.716 2.207 0 .157.044.227.18.289.05.021.064.028.198-.107 1.492-1.506 3.759-1.518 5.273-.028.375.367.822.58 1.295.804.292.138.593.28.881.464.09.059.163.043.428-.092l.127-.063c.45-.213.839-.243 1.158-.09.31.15.522.458.631.918.096.408.194.451.194.452.003-.001.116.021.435-.241.363-.296.845-.624 1.347-.53.509.097.842.58 1.1 1.041.065.115.166.296.222.333 1.151.25 1.693 1.116 2.108 1.906.271.516.859.625 1.306.611 1.01-.001 1.71.432 2.133 1.36.12.262.29.508.472.768.104.15.209.302.304.456.242.39.49.498.995.429 1.352-.186 1.902.2 2.265 1.588.263 1.004 1.084 1.63 1.933 2.156.715.444 1.14.974 1.465 1.828.28.734.496 1.493.705 2.227.26.92.531 1.87.925 2.752.372.833.723 1.81.184 2.877-.082.164-.047.252-.035.28.045.112.18.214.37.28.5.175.765.544.811 1.13.096 1.205.126 2.46.09 3.839-.008.345-.026.692-.043 1.04-.05 1.014-.101 2.062.065 3.066.148.884-.054 1.716-.218 2.265-.255.854-.25 1.709-.244 2.614l.002.44c0 .27.006.428.104.49.862.55.668 1.276.512 1.86l-.055.204a18.9 18.9 0 0 1-.446 1.458c-.235.698-.478 1.42-.586 2.167-.2 1.387-.638 2.748-1.06 4.064l-.179.559c-.199.623-.648 1.195-1.376 1.75-.068.053-.182.14-.2.175.002-.005 0 .046.12.254.371.645.76.924 1.437 1.028.595.092 1.144.445 1.585 1.02.253.329.363.29.417.268.12-.044.133-.27.129-.4-.03-1.033.42-1.794 1.34-2.26.17-.086.229-.235.325-.513.027-.077.054-.154.085-.23.392-.97.393-1.979.395-3.046.001-.795.002-1.618.18-2.426.282-1.3.565-2.597 1.666-3.565a2.363 2.363 0 0 1 1.902-.586c.632.093 1.169.45 1.512 1.006.342.552.621 1.14.89 1.709.24.503.487 1.023.773 1.507.203.343.215.729.227 1.103.01.323.02.629.148.888.054.109.093.173.119.21a.951.951 0 0 0 .064-.063c1.046-1.147 2.333-1.482 3.725-.972 1.52.559 2.56 1.709 3.091 3.417.048.157.102.313.156.469.196.564.398 1.147.372 1.809a.48.48 0 0 0 .01.148c.013-.009.086-.009.238-.054 2.286-.681 3.147-.25 4.005 2.004.176.463.365.923.553 1.384.48 1.174.977 2.387 1.265 3.64.204.889.5 1.753.79 2.556l.021.163c.34 2.246.99 4.45 1.621 6.58.768 2.598 1.562 5.285 1.809 8.058.036.406.174.773.409 1.091l.06.08.004.1c.01.236.014.473-.004.71-.17 2.276-1.41 4.093-2.666 5.76-.4.53-.776 1.074-1.152 1.62-.6.867-1.22 1.765-1.93 2.593-.443.52-.462 1.295-.48 2.116-.005.221-.01.44-.024.653a.35.35 0 0 1 .027.206c-.288 2.139.8 3.712 1.952 5.379.232.335.464.67.683 1.01.583.901 1.02 1.865 1.3 2.864.134.477.306.974.652 1.367.84.955 1.485 2.04 2.109 3.09.272.457.545.915.833 1.362.403.626.867 1.239 1.315 1.831.394.521.803 1.06 1.176 1.615.068.1.14.197.213.294l.137.187c.663 1.057 1.294 2.11 1.926 3.162 1.069 1.78 2.173 3.62 3.353 5.363l.036.068c.535 1.425 1.416 2.689 2.268 3.91.5.718 1.018 1.458 1.467 2.232a105.852 105.852 0 0 0 2.68 4.347c1.267 1.958 2.407 4.026 3.51 6.025l.327.591a24.42 24.42 0 0 1 2.612 7.21c.373 1.89.598 3.919.71 6.383l.006.141-.099.101zM82.636 230.947c.057.238.177.734-.335.973a.806.806 0 0 1-.34.08.674.674 0 0 1-.323-.08.855.855 0 0 1-.412-.628c-.116-.801-.386-1.59-.646-2.352-.28-.82-.571-1.669-.687-2.564-.061-.47-.114-.874-.413-1.19-.133-.138-.333-.349-.332-.612.001-.588-.225-1.13-.465-1.703-.276-.66-.56-1.343-.512-2.14.02-.33-.084-.742-.27-1.073-.64-1.13-1-2.358-1.348-3.547-.102-.35-.204-.698-.313-1.044a7.138 7.138 0 0 0-.377-.903c-.161-.341-.327-.694-.437-1.08-.114-.4-.223-.803-.333-1.205-.323-1.187-.657-2.414-1.098-3.57-.74-1.937-1.356-3.946-1.95-5.889-.581-1.899-1.182-3.862-1.897-5.749a138.7 138.7 0 0 0-.514-1.327c-.277-.708-.555-1.417-.814-2.135l-.1-.278.266-.127a25.27 25.27 0 0 1 2.04-.874l.342-.129.088.355a25.4 25.4 0 0 0 .523 1.858c.213.65.398 1.319.578 1.964.292 1.045.592 2.126 1.014 3.139.122.293.248.596.333.919.551 2.106 1.305 4.87 2.239 7.568a23.72 23.72 0 0 1 1.052 4.212l.01.067a1.4 1.4 0 0 0 .09.382c.848 1.765 1.34 3.659 1.817 5.49.263 1.012.535 2.058.862 3.062.353 1.081.692 2.166 1.03 3.252l.45 1.427c.057.162.12.346.137.544.1 1.192.406 2.374.7 3.518.114.444.228.89.333 1.337l-.318.074.33-.022z"/>
    </g>
</svg>
