<svg xmlns="http://www.w3.org/2000/svg" width="250" height="250" viewBox="0 0 250 250">
    <g fill="none" fill-rule="evenodd">
        <path fill="#FFF" d="M-460-2948H980v5684H-460z"/>
        <path fill="#000" d="M137.907 78.808c.131-.706.609-1.184 1.345-1.348 1.302-.287 5.135 1.29 5.775 2.377.073.124.124.261.168.387l.07.186v.096c-.008.622-.256.939-.462 1.096a1.088 1.088 0 0 1-.675.214c-.126 0-.268-.017-.426-.059a157.873 157.873 0 0 1-4.694-1.32c-.833-.246-1.245-.855-1.1-1.629m-23.803 2.872c.3.988-.629 1.287-1.026 1.414-.15.049-.306.098-.389.151l-1.09.706c-.721.469-1.444.938-2.17 1.401a4.982 4.982 0 0 1-2.206.784l-.047.003h-.036c-1.01 0-1.626-.396-1.828-1.176-.213-.82.264-1.59 1.134-1.83 1.124-.309 2.213-.796 3.266-1.268.625-.28 1.27-.568 1.924-.821.481-.187 1.208-.468 1.819-.172.216.105.503.33.65.808m-47.448 36.958c-1.208.644-1.95-.105-2.36-.849-1.55-2.808-2.217-5.104-2.162-7.444l.001-.046-.007-.045c-.05-.303.006-.39.006-.39.015-.012.1-.04.292-.014.53.07.98-.096 1.378-.242.085-.032.169-.062.253-.09.997-.336 1.689-.029 2.244.997.224.413.174.54.173.541-.012.024-.11.102-.405.15l-.069.012c-.541.088-1.155.189-1.68.606-.937.747-.85 1.502-.61 2.004.19.401.46.653.806.748.378.105.801.003 1.258-.301.146-.096.35-.203.489-.167.098.026.259.145.47.563.12.24.264.47.407.699.15.238.29.464.4.696.718 1.52.636 1.76-.884 2.572m42.282 84.187c1.327.312 3.107 1.615 4.406 3.41-1.49-1.028-2.819-2.113-4.115-3.172l-.291-.238m-27.287-7.712c.313-1.766.725-3.621 1.616-5.214 1.863-3.331 2.344-6.459 1.512-9.843a17.89 17.89 0 0 1-.278-1.493c-.145-.918-.294-1.866-.691-2.796-.165-.385-.084-.55.8-.971a7.76 7.76 0 0 0 .274-.134.841.841 0 0 1 .37-.102.46.46 0 0 1 .184.037c.175.076.315.27.395.549.167.582.313 1.194.255 1.725-.26 2.34-.373 4.72-.483 7.024-.142 2.957-.288 6.016-.743 8.987-.296 1.921-.778 3.429-1.519 4.745-.185.33-.296.363-.296.363s-.094-.007-.305-.222c-.823-.837-1.177-1.718-1.09-2.655m23.784-14.79c.014-.246.111-.726.206-1.192.047-.232.1-.462.153-.694.08-.355.162-.71.224-1.07.138-.803-.097-1.31-.698-1.506-.802-.261-1.235.397-1.455.731-.417.635-.682 1.373-.834 2.32l-.046.29c-.8 4.971-1.626 10.112-1.358 15.306.037.722-.01 1.441-.058 2.202-.095 1.465-.193 2.979.355 4.49-.418.116-.855.029-1.352-.07a8.62 8.62 0 0 0-.682-.118c-.032-.004-.054-.01-.064-.01-.013-.052-.016-.164-.018-.24a1.857 1.857 0 0 0-.078-.568c-1.538-4.475-.504-8.686.591-13.143.21-.853.42-1.707.61-2.563.205-.92.335-1.84.466-2.937l.015-.114c.047-.356.112-.842-.184-1.217-.173-.219-.428-.348-.76-.381-1.035-.11-1.273.922-1.377 1.395-.146.663-.271 1.33-.397 1.998-.105.558-.21 1.117-.327 1.672-.214 1.01-.5 2.028-.776 3.013-.447 1.587-.908 3.23-1.098 4.936-.281 2.53-.219 4.633.203 6.65.075.363.17.814.043 1.003-.075.112-.262.167-.407.194-.256.048-.445.027-.565-.062-.262-.194-.33-.792-.35-.99-.369-3.301-.115-6.553.38-10.418.226-1.775.513-3.575.791-5.317.144-.901.288-1.804.424-2.707.012-.081.033-.168.053-.257.083-.375.188-.84-.065-1.234-.146-.228-.38-.378-.694-.445-1.206-.26-1.471.936-1.586 1.447l-.025.108c-1.194 5.152-2.373 11.28-2.068 17.665.039.822.06 1.64-.144 1.835-.201.193-.995.14-1.86.061-1.219-.11-2.458-.395-3.657-.671l-.268-.062c-.409-.094-.499-.168-.512-.18 0 0-.004-.06.073-.2.94-1.705 1.017-3.534 1.091-5.303.02-.469.04-.936.075-1.4a47.9 47.9 0 0 1 .377-3.286c.177.738.247 1.507.32 2.302.064.717.13 1.457.283 2.182.316 1.5.275 2.742-.129 3.908-.14.406-.296 1.007-.033 1.537.166.334.464.574.886.712 1.23.402 1.852-.651 2.118-1.101.858-1.456.696-3.125.524-3.99-.384-1.927-.001-3.72.404-5.62.132-.618.268-1.258.374-1.896.311-1.875.436-3.779.555-5.62.064-.983.13-1.999.225-2.992.036-.377-.016-.746-.071-1.092-.056-.347-.172-1.07-.904-1.17a1.01 1.01 0 0 0-.778.19c-.258.2-.421.535-.473.97-.136 1.167-.277 2.373-.323 3.598-.08 2.117-.423 4.162-.845 6.45-.543-2.6-.752-5.21-.957-7.754-.188-2.35-.383-4.767-.837-7.18.512.396.921.83 1.32 1.254.178.188.351.372.53.55 2.17 2.158 4.362 2.714 7.114 1.805 3.172-1.05 6.035-1.845 8.959-.932.282.088.557.192.829.294 1.212.456 2.583.972 4.11-.195a.853.853 0 0 1 .07.373c-.026 2.158-.68 3.065-2.688 3.732-.383.127-.778.219-1.196.315-.22.051-.442.102-.66.159-.426.11-.863.223-1.094.25m-1.101 7.392c.262 4.156.526 8.313.806 12.468.039.586-.08.604-.364.648-.153.024-.22.009-.23.009h-.002c-.048-.068-.06-.338-.069-.563-.03-.696-.064-1.392-.098-2.087-.17-3.447-.342-6.975-.043-10.475m47.119-55.165c-.515-.696-.968-1.47-1.405-2.22-.864-1.483-1.758-3.016-3.235-4.16-.445-.346-.868-.877-1.294-1.625-.486-.855-.976-1.707-1.467-2.56-2.53-4.399-5.13-8.919-7.141-13.687 1.392 1.574 3.285 2.251 6.04 2.311 1.897.041 3.43-.796 3.892-2.134.348-1.007.825-1.999 1.286-2.96 1.32-2.747 2.685-5.588 1.494-9.378a46.054 46.054 0 0 0-5.157-11.07c-.744-1.168-1.88-1.62-3.2-1.273-2.534.666-4.137 2.487-5.688 4.247l-.334.378c-1.258 1.419-1.654 2.791-1.207 4.194.059.183.033.373-.068.493-.12.144-.32.152-.469.134-2.16-.27-4.194.263-6.16.777l-.261.068c-.595.154-.791.02-.964-.303-.68-1.268-1.67-2.264-2.628-3.227-.778-.783-1.513-1.523-2.081-2.388-1.176-1.79-2.725-2.193-4.364-2.62a43.614 43.614 0 0 1-.657-.174c-3.227-.892-7.894 1.613-8.917 4.784-.2.62-.448 1.248-.688 1.854-.331.838-.674 1.704-.91 2.598-.258.975-.64 1.268-1.705 1.307-2.376.086-4.787.225-7.12.36a481.53 481.53 0 0 1-4.751.26c-.558.026-1.117.059-1.676.092-1.892.11-3.847.226-5.739.095-1.244-.086-2.497-.097-3.709-.107-.722-.006-1.443-.011-2.165-.032-.62-.024-1.143.116-1.516.39l-.272.199.09.325c.082.297.165.594.255.89.058.189.028.337-.092.453a.661.661 0 0 1-.636.14l-.358-.12-.207.316a6.76 6.76 0 0 1-.505.682c-.492.582-.497 1.335-.013 1.966.418.545 1.086.725 1.741.472.903-.35 1.858-.449 2.87-.554 1.154-.119 2.348-.243 3.495-.763.849-.386 1.95-.436 3.006-.454.933-.016 1.866-.029 2.799-.043 4.738-.066 9.638-.135 14.453-.578.478-.043.753-.011.89.104.146.122.238.422.276.892.028.35.054.703.079 1.056.199 2.798.405 5.692 2.147 8.224.335.487.59 1.017.86 1.577.131.272.262.543.402.81l.115.22c.942 1.8 2.01 3.84 4.604 4.029 3.043.218 5.87-.711 7.747-2.56 2.894-2.852 4.486-6.894 4.604-11.687.04-1.622.531-2.875 1.644-4.189.339-.4.661-.604.897-.578.238.027.5.297.74.76 1.338 2.592 2.582 5.286 3.785 7.892 1.36 2.943 2.766 5.986 4.32 8.915 2.63 4.96 5.624 9.78 8.519 14.44.62 1 1.241 2 1.86 3.002.196.32.658 1.068.574 1.318-.084.25-.899.564-1.166.667-2.706 1.046-5.262.023-7.733-.966l-.56-.224c-2.393-.946-5.28-1.921-8.361-1.875-1.534.019-2.32-.441-2.82-1.577-.136-.31-.323-.572-.504-.824-.218-.304-.423-.59-.497-.918-.167-.733-.694-1.14-1.345-1.039-.323.051-1.071.3-1.032 1.509.03.89.404 1.623.767 2.332.12.235.24.47.346.711.94 2.137 2.601 3.07 4.937 2.778 2.06-.259 3.959.362 5.969 1.018l.81.263c.318.1.517.236.592.404.093.21.034.55-.175 1.009-.427.935-.862 2.037-.617 3.277l.072.37c.204 1.043.415 2.122.731 3.164.122.4.077.509.066.526-.005.01-.06.089-.36.155-.23.05-.46.127-.689.205-.33.114-.638.224-.91.209-5.233-.222-9.547-.598-13.465-3.207-1.059-.705-2.166-1.365-3.237-2.005-.36-.214-.719-.429-1.077-.645-.056-.034-.115-.074-.176-.114-.343-.23-1.148-.77-1.756.007-.2.253-.279.512-.238.77.066.417.417.653.674.825.078.052.156.101.216.157l.167.154c.305.282.622.574.963.838 3.66 2.838 8.045 5.877 13.754 6l.27.004c.968.008 1.575.06 1.851.713.298.7-.068 1.22-.69 2.01l-.21.269c-.35.457-.798.816-1.33 1.065-.884.413-1.565 1.046-2.083 1.935-1.624 2.786-2.52 5.301-2.824 7.918-.043.372-.065.755-.087 1.14-.036.642-.074 1.305-.22 1.895l-.015.086c-.138 2.1-.704 3.748-1.73 5.037-.118.149-.277.18-.473.093l-.29-.128-.236.211c-.234.21-.88.193-2.004.147-.26-.01-.52-.047-.78-.08-.389-.053-.787-.105-1.205-.09-1.195.048-2.343-.252-3.559-.566-1.333-.345-2.711-.7-4.157-.564-2.765.263-4.859-.607-6.591-2.732a50.67 50.67 0 0 0-2.488-2.838 11.897 11.897 0 0 1-.377-.423c-.545-.627-1.161-1.339-2.25-1.612l-.694-.175.089.709c.125.998.578 1.629.979 2.185l.055.076c1.867 2.602 3.741 5.115 6.149 7.255l.129.11c.075.061.2.164.202.206-.058.097-.222.128-.585.106-.189-.01-.403-.055-.63-.101-.51-.106-1.038-.214-1.516.003-1.312.597-2.701.687-4.172.783-1.187.077-2.413.156-3.598.526-1.841.575-3.32.156-4.795-1.358-.245-.252-.475-.528-.706-.806-.683-.82-1.39-1.667-2.49-2.01-.892-.279-1.028-.77-1.275-1.659l-.074-.263c-.387-1.348-.507-2.813-.623-4.231-.221-2.707-.45-5.507-2.479-7.867-.017-.024-.051-.101-.083-.358-.545-4.431-2.093-8.61-3.59-12.65-.369-.995-.738-1.99-1.092-2.99-.472-1.331-.899-2.709-1.312-4.042-.486-1.567-.987-3.188-1.57-4.757-.383-1.032-.814-2.062-1.23-3.058-.928-2.225-1.888-4.526-2.36-6.934-.134-.681-.422-1.651-1.388-2.214-.136-.079-.194-.214-.294-.465a3.63 3.63 0 0 0-.168-.379c-.483-.899-.555-1.866-.632-2.89-.04-.546-.083-1.11-.192-1.667-.29-1.495-.987-2.902-1.66-4.264-.146-.293-.291-.587-.431-.88-.381-.793-1.195-.813-1.79-.827-.129-.003-.257-.006-.379-.018a8.018 8.018 0 0 0-.982-.011c-.411.01-.807.022-1.184-.051 1.387-1.49 2.158-1.456 4.061-.172l.16.109c.27.187.577.4.929.523.902.317 1.803.18 2.41-.367.586-.53.8-1.337.586-2.218a1.874 1.874 0 0 1-.063-.378c.062-.005.167 0 .344.028.203.031.394.02.563.012.39-.022.5-.014.661.246.388.628.815.639 1.034.591.408-.091.694-.506.763-1.112.05-.429.028-.898-.065-1.436-.58-3.347-.196-6.773.143-9.797l.006-.06-.007-.059c-.377-2.794-.481-5.764-.309-8.825l.046-.816-.11.05c.092-1.944.199-3.788.653-5.57l.014-.086c.13-1.81.446-3.365.964-4.754l.053-.144-.038-.148c-.113-.438-.084-.73.101-1.007 1.916-2.88 3.699-5.107 5.614-7.01.369-.368.879-.626 1.475-.749 2.266-.463 4.418-1.314 6.5-2.137 1.636-.647 3.33-1.316 5.045-1.78.599-.163 1.194-.363 1.769-.556 1.424-.48 2.763-.935 4.216-.874 1.572.062 3.112.076 4.677-.43 1.647-.533 2.295.114 2.64.647 2.35 3.645 5.759 4.94 10.42 3.96a3.682 3.682 0 0 1 1.569.026c2.95.642 6.083.692 9.859.154.409-.059.408-.058.554.407l.178.562c.505 1.605 1.028 3.265 1.66 4.86.411 1.039.633 1.82.55 2.746-.46 5.099-1.001 10.524-2.115 15.873-.223 1.07-.067 1.972.489 2.84.121.189.492.765 1.076.726.38-.025.697-.301.939-.82.12-.257.25-.508.382-.76.603-1.157 1.287-2.468.714-4.134-.164-.476-.012-1.183.122-1.807l.1-.471c.601-2.851 1.224-5.8 1.279-8.788.008-.455.07-.919.137-1.41.176-1.292.375-2.756-.572-4.102-.77-1.092-1.058-2.342-1.365-3.667l-.093-.405c-.557-2.364-.766-3.9 1.015-5.291.49-.382.69-.967.865-1.483.16-.466.31-.905.634-1.144 1.109-.816 1.194-1.867 1.144-2.693l-.123-2.089c-.122-2.08-.248-4.231-.404-6.346-.047-.639-.196-1.26-.341-1.86l-.105-.444c-.228-.994-.512-1.98-.787-2.934-.591-2.056-1.203-4.181-1.256-6.413-.058-2.374-1.068-4.443-2.845-5.827-1.829-1.422-4.262-1.926-6.678-1.379-.482.109-.97.177-1.486.248-.3.04-.6.082-.898.132-1.35.224-2.754.288-4.113.35-1.743.078-3.545.159-5.312.577-1.146.27-2.03.682-2.614 1.813-.568 1.1-1.171 1.667-2.015 1.899-.33.09-.665.173-1 .256-1.699.418-3.455.85-4.781 2.35-.043.04-.25.116-.554.12-1.053.014-2.11.11-3.132.205-1.816.167-3.695.34-5.544.027-1.66-.28-3.43-.179-4.989-.089-2.608.15-5.364.513-7.85 2.13-.893.582-2.612 3.636-2.304 4.712.222.773.687 1.02.945 1.098.465.141.988-.008 1.472-.418.34-.287.95-.88 1.217-1.622.524-1.458 1.834-1.99 3.13-2.407 2.244-.723 4.34-.992 6.226-.804 3.17.32 6.425.398 9.677.232 4.09-.208 7.463-2.343 9.945-4.18 2.13-1.576 4.138-2.394 6.509-2.654l.529-.058c2.33-.255 4.737-.518 7.084-.953 2.857-.529 5.597 1.254 6.108 3.974l.369 1.946c.23 1.21.46 2.419.68 3.625.127.694.4 1.315.665 1.916.317.718.615 1.396.608 2.093-.025 2.394.367 4.736.747 7l.045.27c.317 1.885.615 3.666-1.01 5.02-.294.245-.438.617-.553.916l-.049.124c-.864 2.163-4.5 3.985-6.75 3.9-1.016-.037-2.052-.15-3.053-.258-1.858-.201-3.78-.409-5.75-.17-1.89.23-4.243.222-5.688-1.898-2.178-3.197-4.782-4.11-7.96-2.796-.122.05-.314.052-.517.053-.164.001-.33.002-.488.023-.544.07-1.107.108-1.65.146-1.217.083-2.475.169-3.732.606-3.549 1.239-7.19 2.414-10.71 3.552-1.524.493-3.048.986-4.57 1.485-1.222.4-2.176 1.177-3.098 1.929l-.319.259c-.75.605-1.223 1.377-1.68 2.123-.29.472-.563.918-.897 1.313-2.59 3.053-4.125 6.186-4.693 9.577l-.048.286c-.4 2.37-.812 4.818-.06 6.971.425 1.216.236 2.188.019 3.313-.077.395-.155.8-.21 1.229l-.013.095.024.092c.464 1.753.607 3.646.705 5.282l.005.068c.141 2.368.319 5.316-.618 7.535-.103.244-.291.404-.503.427-.19.022-.376-.077-.526-.288a2.665 2.665 0 0 0-.332-.359l-.53-.484-.257.67a.518.518 0 0 1-.21.257c-.562-1.499-1.616-2.576-2.634-3.619-.556-.569-1.081-1.107-1.563-1.748a3.83 3.83 0 0 1-.13-.18c.235-.064.437-.199.623-.34l.303-.232-.152-.35c-.941-2.167-1.49-3.89-1.782-5.586l-.018-.105-.06-.088c-.526-.768-.96-1.585-1.418-2.45-.219-.413-.438-.827-.668-1.235-.23-.408-.509-.777-.779-1.135-.094-.125-.188-.25-.28-.377l-.363-.495c-1.175-1.59-2.285-3.093-2.19-5 .064-1.276-.273-2.46-.597-3.605-.389-1.368-.756-2.661-.482-4.089.284-1.473-.054-3.273-.388-4.523-.339-1.274-.214-2.56.351-3.623.26-.487.506-.982.752-1.476.826-1.663 1.606-3.234 2.882-4.56 1.16-1.206 1.708-2.828 2.055-4.105.295-1.09.654-2.115 1.78-2.671 2.075-1.024 4.083-2.227 6.025-3.39 2.032-1.218 4.133-2.477 6.296-3.52.374-.18 1.367-.659 1.012-1.683-.186-.538-.683-1.105-1.985-.737-.389.11-.734.297-1.068.477l-1.504.817c-3.22 1.749-6.55 3.557-9.983 4.959-1.904.777-2.974 1.947-3.58 3.915-.668 2.17-1.632 4.629-3.716 6.419-.726.624-.879 1.532-.99 2.195-.092.545-.242 1.1-.387 1.636-.148.545-.3 1.108-.397 1.677a45.09 45.09 0 0 1-.438 2.136c-.535 2.409-1.087 4.899-.271 7.352.868 2.611 1.408 5.402 1.697 8.783.101 1.188.53 2.028 1.43 2.81 2.259 1.959 4.23 3.992 3.559 7.297-.1.489.126 1.004.29 1.381l.33.76c.874 2.02 1.778 4.11 3.081 5.99.667.96 1.225 2.001 1.683 2.892.287.557.23.713.232.713-.002.002-.112.106-.627.082-.966-.046-1.94.314-2.867 1.07-2.343 1.908-3.609 5.888-2.882 9.06.427 1.865 1.236 3.545 2.018 5.17.219.455.439.911.65 1.371.722 1.574 1.66 2.509 2.79 2.78 1.12.267 2.364-.13 3.744-1.221.061-.047.152-.12.234-.176.285.946.792 1.786 1.283 2.6.673 1.116 1.31 2.17 1.337 3.407.045 2 .926 3.563 1.779 5.077l.22.392c.207.372.407.736.566 1.11 3.327 7.83 5.629 16.544 7.039 26.642.013.09.004.239-.005.381-.023.386-.051.865.26 1.214.178.2.428.31.745.329.675.04.678.224.688.913 0 .112.003.226.009.337.071 1.255.119 2.59.15 4.204l.003.136c.008.265.02.71-.112.777-2.045 1.04-1.948 2.767-1.863 4.29.017.286.033.572.035.854 0 .147.022.303.046.46.058.393.045.47-.035.528-2.259 1.654-1.039 3.419-.148 4.708 1.222 1.77 1.673 3.51 1.378 5.323-.236 1.454-.869 2.738-1.54 4.097-.478.97-.973 1.973-1.308 3.04-.012.042-.076.142-.357.355-2.998 2.285-6.343 4.133-9.578 5.919-1.734.958-3.453 1.83-5.416 1.986-.043.003-1.038.088-1.27.685-.374.965-1.198 1.26-2.152 1.6-.165.059-.33.118-.493.18-1.11.425-1.723 1.393-2.133 2.19-1.018 1.98-1.294 4.071-1.42 5.672l-.018.185c-.052.52-.16 1.605.95 1.844 1.223.262 1.612-.863 1.842-1.526.203-.582.384-1.173.565-1.763.212-.694.432-1.412.686-2.097.752-2.034 1.35-2.448 3.558-2.457.107-.008.236.006.366.014.552.03 1.123.063 1.429-.33.684-.884 1.675-1.212 2.725-1.56.71-.236 1.446-.48 2.109-.906a33.669 33.669 0 0 0 2.979-2.161c.004.03.01.06.019.09.062.233.227.423.49.564.806.438 1.25-.344 1.418-.638.069-.123.164-.29.226-.334.727-.515.971-1.286 1.113-1.972.359-1.723.866-1.877 1.218-1.84.306.03.386.158.41 1.059.01.342.02.696.11 1.02.419 1.499.188 2.14-.916 2.537-2.322.837-4.418 2.125-6.445 3.369-.775.476-1.55.952-2.34 1.405-.435.249-.893.522-1.293.867-.469.405-.661.928-.514 1.396.135.433.524.724 1.042.78l.202.024c1.104.127 2.615.301 3.41-1.276.137-.274.371-.45.643-.656.133-.1.265-.2.39-.311 1.134-1.007 2.501-1.724 3.824-2.417.774-.407 1.576-.827 2.334-1.305 1.53-.965 2.71-.572 4.095.043.325.144.399.247.407.247-.006.023-.06.164-.414.429-1.726 1.287-2.983 2.992-4.199 4.641-.326.443-.652.885-.987 1.319-.224.29-.904 1.172-.03 1.952.592.53 1.37.452 1.984-.196.517-.547 1.013-1.09 1.39-1.72.99-1.653 2.334-3.211 4.11-4.765.507-.442.875-.724 1.312-.63 1.738.369 3.512.476 5.229.579l.682.045c-.236.112-.423.28-.572.413l-.132.116c-1.295 1.094-1.81 2.57-2.308 3.995-.384 1.099-.746 2.137-1.44 2.993-.251.309-.296.68-.121.996.224.403.735.59 1.189.59.064 0 .128-.004.19-.011.902-.112 1.576-.697 2.001-1.738l.13-.317c.363-.887.739-1.803 1.031-2.74.256-.822.719-1.556 1.165-2.265.144-.227.285-.452.418-.676l.069-.115v-.132c.001-.483-.14-.822-.412-1.023.504.04 1.01.086 1.506.149.807.101.999.354.933 1.228a92.107 92.107 0 0 0-.246 4.727c-.014.564.133 1.014.424 1.297.17.165.471.353.96.334 1.028-.05 1.145-1.02 1.206-1.524l.07-.575c.172-1.37.35-2.788.25-4.218-.035-.513.033-.859.199-1.002.195-.17.61-.126.924-.06 1.279.27 2.543.146 3.637-.001-.15.34-.06.729-.01.941.016.065.03.132.042.197.277 1.582.731 2.986 1.388 4.294.185.368.39.776.464.997-.222.04-.66.055-1.086.07l-.648.023.2.616c.306.94.812 1.605 1.465 1.92.546.265 1.184.275 1.846.03.609-.224 1.036-.628 1.237-1.168.246-.663.133-1.503-.312-2.302-.372-.67-.292-1.302-.2-2.034.027-.217.054-.433.07-.651l.007-.11c.006-.094.015-.253.008-.282.048.021.153.148.216.224l.08.095c1.489 1.729 2.352 3.222 2.798 4.84l.043.167c.11.438.364 1.464 1.469 1.266 1.289-.23 1.082-1.481.994-2.016-.126-.763-.377-1.494-.695-2.257l.518.326c1.433.899 2.786 1.748 4.086 2.614.11.074.218.158.328.241.505.388 1.35 1.036 2.246.244 1.188-1.05.17-2.396-.164-2.839a5.203 5.203 0 0 0-.667-.693 6.683 6.683 0 0 1-.392-.376c-.337-.361-.704-.666-1.093-.99l-.09-.076c.581.344 1.13.707 1.67 1.066.69.46 1.345.895 2.094 1.307-.389.633-.485 1.164-.295 1.625.268.649.996.901 1.743 1.078 2.427.573 3.71 2.192 4.159 5.25.344 2.34.709 4.668 1.084 6.917l.026.173c.059.407.14.965.574 1.267.177.123.384.185.619.185.105 0 .216-.012.332-.037 1.047-.224.909-1.21.842-1.685-.01-.076-.021-.15-.028-.22-.086-.855-.18-1.708-.274-2.562-.223-2.015-.454-4.1-.559-6.15-.111-2.189-1.46-3.293-2.901-4.16-.218-.13-.452-.246-.685-.363-1.008-.501-1.525-.812-1.342-1.869.06-.344-.186-.7-.729-1.057l-.386-.255c-.726-.48-1.477-.978-2.262-1.405a828.77 828.77 0 0 0-5.196-2.788 977.137 977.137 0 0 1-4.744-2.544c-.351-.19-.684-.369-.768-.63l-.085-.263-.27-.062c-.57-.131-1.036-.288-1.603-.668a.688.688 0 0 1-.138-.12l-.24-.278-.334.153a2.312 2.312 0 0 0-.266.14 1.757 1.757 0 0 1-.39.198c-.025-.078-.057-.24-.077-.565-.235-3.952-.156-7.98-.08-11.876l.016-.833c.013-.807.027-1.64.12-2.44.039-.328.456-.81.95-1.1.37-.217.665-.26.794-.206.058.024.246.108.258.189l.154.986.686-.726a5.28 5.28 0 0 1 1.637-1.152.473.473 0 0 1 .119-.033l.273-.047.1-.258c.124-.32.251-.64.379-.96.77-1.94 1.567-3.945 1.749-6.149.046-.56.204-.936.482-1.15.34-.26.925-.32 1.734-.174 2.045.366 4.464.72 6.911.584.85-.048 1.437-.093 1.933-.178l.105-.018.088-.06a13.644 13.644 0 0 0 1.863-1.523l.083-.082.037-.11c.166-.495.293-1.125.431-1.92.155-.892.274-1.802.39-2.683.344-2.633.67-5.12 1.891-7.421.21-.394.402-.794.594-1.194.739-1.54 1.437-2.995 3.08-3.982.882-.53 3.568-2.145 3.182-5.164-.043-.334-.017-.606.722-.806 1.091-.298 1.895-.874 2.324-1.668.449-.83.485-1.885.104-3.053-.204-.625-.361-1.287-.513-1.929-.07-.29-.138-.58-.211-.868-.189-.74.159-1.149.789-1.807.337-.352.685-.717.904-1.184.016-.035.029-.052.03-.057.1.005.352.106.507.174.225.1.458.203.702.24 3.286.504 5.997-.23 8.287-2.237 1.163-1.02 1.328-2.222.467-3.385"/>
    </g>
</svg>
