<svg xmlns="http://www.w3.org/2000/svg" width="250" height="250" viewBox="0 0 250 250">
    <g fill="none" fill-rule="evenodd">
        <path fill="#FFF" d="M-820-3341H620v5684H-820z"/>
        <path fill="#000" d="M91.666 68.68c2.671-.067 5.408-.654 8.365-1.795.754-.29 1.594-.312 2.407-.333l.333-.01c.783-.018 1.337.438 1.518 1.236l.018.082-.023.08c-.284.997-1.16 1.298-1.89 1.448-2.49.513-2.49.513-2.02 2.894l.15.79c.35 1.848.712 3.76 1.782 5.384.341.52.456.998.34 1.425-.11.408-.424.743-.933.995-.268.134-.5.19-.703.19-.649 0-1-.575-1.296-1.06-1.07-1.752-1.467-3.676-1.851-5.536-.121-.587-.242-1.173-.383-1.754l-.071-.294c-.14-.586-.252-1.048-.381-1.127-.13-.08-.601.037-1.195.183l-.173.043c-1.331.326-2.765.583-4.233.259-.597-.132-1.559-.345-1.397-1.432.151-1.007.778-1.647 1.636-1.669zm-49.55-21.437c.154.503-.14 1.025-.4 1.485-.113.2-.22.389-.275.549-.768 2.201-2.815 3.822-4.868 3.854h-.081c-2.734 0-5.485-2.12-6.158-4.763-.184-.72-.402-1.48-.746-2.163-.941-1.868-.76-4.192.5-6.374 1.474-2.555 4.061-4.366 6.437-4.506.388-.023.773-.062 1.16-.1l.453-.045c.398-.038.974-.045 1.361.32.26.243.384.608.37 1.086-.023.701-.206 1.185-.56 1.48-.306.255-.72.346-1.234.268-4.386-.662-5.572 3.58-5.831 4.897-.372 1.885 1.682 5.587 3.545 6.387 1.195.513 2.671-.071 3.51-1.39.094-.148.177-.332.264-.52.228-.497.486-1.06.997-1.24.28-.097.59-.064.922.102.334.166.548.393.634.673zm-3.318 28.712c.346 1.678-.526 2.17-1.077 2.313-.495.128-.922.074-1.27-.163-.417-.284-.685-.817-.773-1.542-.08-.654-.134-1.311-.188-1.969-.105-1.27-.214-2.586-.518-3.843a16.163 16.163 0 0 0-.291-1.01c-.183-.592-.373-1.204-.453-1.867-.078-.641-.329-1.127-.747-1.445-.464-.352-1.116-.479-1.887-.363-1.081.162-1.73.259-1.893.492-.158.23-.021.852.204 1.88l.015.067c.541 2.463 1.056 4.933 1.57 7.403l.32 1.534c.152.726.07 1.33-.237 1.745-.265.36-.678.568-1.227.621-.07.006-.137.01-.2.01-1.203 0-1.317-1.146-1.387-1.846l-.008-.085c-.313-3.083-.907-7.103-2.747-10.845a2.266 2.266 0 0 1-.082-1.868c.275-.686.88-1.243 1.66-1.528.958-.351 1.962-.443 2.848-.523.608-.056 1.181-.108 1.677-.233l.04-.011h.042c2.452.014 3.983 1.073 4.68 3.235 1.013 3.138 1.507 5.785 1.556 8.331.005.279.098.57.196.878.067.21.133.42.177.632zm16.839-18.218c-.422.263-.845.525-1.278.769-.31.175-.617.262-.914.262a1.5 1.5 0 0 1-.406-.056c-.45-.126-.838-.463-1.123-.973-.199-.354-.244-.726-.131-1.073.14-.43.51-.805 1.043-1.054.91-.424 1.966-.948 2.92-1.62.732-.515 1.042-.838 1.071-1.116.03-.274-.195-.641-.776-1.269a24.753 24.753 0 0 0-1.446-1.442c-.853-.783-1.477-1.11-2.026-1.057-.563.053-1.138.51-1.866 1.482-.62.83-1.444 1.655-2.879 1.51-.735-.076-1.22-.47-1.366-1.109-.148-.648.105-1.218.71-1.605 1.547-.988 2.974-2.196 4.354-3.363.976-.827 1.985-1.68 3.035-2.457 1.714-1.267 3.584-2.141 5.187-2.83l.102-.025c.973-.078 1.573.282 1.885 1.137.407 1.114-.513 1.567-.906 1.761-.391.193-.788.375-1.185.557-1.132.519-2.302 1.055-3.3 1.857-.379.303-.718.593-.715.793.001.109.102.312.567.661.684.514 1.252 1.176 1.8 1.817.196.228.392.456.592.677.193.213.369.323.522.33.15 0 .328-.086.528-.273.781-.734 1.507-1.167 2.283-1.364 1.35-.34 2.377.186 2.75 1.41.203.664.166 1.161-.109 1.476-.255.294-.68.397-1.264.305-.78-.125-1.356.286-2.028.985-1.754 1.824-3.505 3.571-5.631 4.897zm20.777-23.778c.21-.68.404-1.365.622-2.128l.08-.28.12.232c.35.68.682 1.321 1.036 1.941.346.609.272.804-.01.99-.568.373-1.239.44-1.795.176-.191-.09-.256-.266-.053-.93zm-3.753 9.382c.226.067.437.1.633.1.575 0 1.013-.285 1.262-.836.16-.354.22-.735.277-1.104l.029-.18c.313-1.97.54-3.391 3.01-3.547l.428-.03c1.169-.093 1.606-.126 1.926 1.098.186.713.593 1.016.902 1.145.489.205 1.096.123 1.709-.229.508-.292.804-.65.88-1.064.084-.453-.098-.945-.555-1.502l-.118-.138c-.085-.097-.242-.278-.245-.337 0-.001.032-.068.24-.164.31-.145 1.137-.53.924-1.476-.183-.818-.91-.99-1.493-1.128l-.169-.04c-.599-.135-.92-.23-1.093-.741-.303-.888-.643-1.776-.971-2.636-.722-1.886-1.469-3.837-1.844-5.86-.255-1.385-.938-2.062-2.02-2-1.426.075-1.557 1.292-1.653 2.182l-.007.065c-.097.899-.184 1.799-.27 2.698-.321 3.323-.652 6.76-1.544 10.058-.118.438-.25.873-.384 1.311-.286.934-.58 1.898-.753 2.95-.152.658.192 1.196.9 1.405zm13.5 3.499c-.133-.565.025-.95.181-1.174.247-.354.681-.585 1.222-.65 2.251-.27 4.478-.493 6.617-.665 1.21-.096 1.877.823 2.276 1.523a63.356 63.356 0 0 1 2.283 4.338c1.411 2.985.48 6.399-2.37 8.696-1.077.868-2.064 1.632-3.246 2.191-.884.418-1.563.636-2.183.636-.811 0-1.52-.372-2.449-1.154a4.756 4.756 0 0 1-.45-.452c-.189-.21-.367-.407-.571-.52-.334-.186-.787-.489-.867-.972-.057-.35.091-.716.455-1.116.302-.334 1.22-1.347 2.49-.352 2.157 1.69 2.278 1.683 4.329-.213l.33-.302c.549-.494 1.067-.961 1.419-1.565.384-.656.475-1.223.258-1.598-.21-.362-.718-.542-1.453-.556-.792.004-1.603.083-2.388.16-.426.04-.851.082-1.277.112-.785.057-1.393-.06-1.912-.369-.486-.286-1.298-.767-1.004-1.749.217-.732.835-1.18 1.65-1.2.59-.013 1.179-.01 1.768-.007l.436.001.32-.062c.13 0 .265.01.399.02.252.018.491.036.673-.025.285-.097.606-.039.89.013.215.04.483.089.569.022.046-.036.082-.15.093-.301a1.817 1.817 0 0 0-.51-1.42 1.713 1.713 0 0 0-1.285-.528c-.384.017-.767.019-1.154.017-1.147-.01-2.22-.001-3.276.419-.506.2-1.01.194-1.418-.018-.421-.218-.713-.627-.844-1.18zM74.31 65.974c.638-.013.79.07.823.12.017.025.084.178-.185.772-.66 1.465-1.217 2.998-1.756 4.48l-.384 1.052c-.546 1.481-.689 2.654-.463 3.802.07.354.049.592-.061.71-.106.112-.392.225-1.162.125v.005c-.126-.03-.321-.062-.635-.112l-.122-.02c-.479-.078-.931-.15-.997-.191-.012-.096.145-.447.296-.785l.176-.396c.644-1.473 1.155-3.024 1.648-4.524.209-.633.417-1.265.635-1.894.194-.558.382-1.118.57-1.679l.14-.423c.241-.715.683-1.026 1.477-1.042zm-12.287 9.17c-.96.299-1.56.84-1.69 1.52-.126.668.222 1.368.98 1.974 1.386 1.108 2.08 2.575 2.845 4.378.254.6.599 1.42 1.6 1.175.334-.083.576-.246.72-.485.244-.404.149-.899.03-1.37-.322-1.286-.67-2.564-1.316-3.974l2.09.73c2.258.787 4.384 1.528 6.507 2.275.169.06.225.11.237.111-.01.026-.056.123-.267.289-.54.423-1.134.943-1.373 1.762-.07.242-.286.981.387 1.428.164.108.316.15.455.15.294 0 .528-.186.689-.313.042-.034.085-.068.13-.1a18.197 18.197 0 0 0 3.318-3.05c.785-.923 1.046-1.584.847-2.145-.2-.56-.822-.908-2.016-1.128l-.13-.023c-.594-.104-.744-.17-.739-.535.006-.34-.002-.679-.009-1.018-.022-1.08-.045-2.1.33-3.113.136-.368.27-.737.402-1.107.75-2.078 1.525-4.227 2.825-6.081.387-.552.522-1.067.403-1.53-.11-.43-.434-.78-.96-1.037-1.992-.977-3.845-1.436-5.701-1.422-.927.01-1.627.111-2.026.57-.4.463-.4 1.187-.27 2.163.047.356.096.724.01 1.005l-.049.16c-.774 2.532-1.574 5.149-2.785 7.549-.443.876-1.077 1.176-1.935.915-1.233-.376-2.378-.083-3.539.278zm75.483 55.36c.046-.516.255-.94.607-1.224.368-.299.86-.42 1.421-.353.715.086 1.42.258 2.103.424l.532.128c.277.065 1.016.238 1.089.998.077.803-.617 1.103-.99 1.264-.64.278-1.297.3-1.777.317l-.253.01c-.189 0-.341.003-.47.007-.098.002-.185.004-.265.004-.12 0-.225-.004-.333-.02-.487-.072-1.779-.26-1.664-1.554zm-18.187 2.462a8.03 8.03 0 0 1-.324.006c-.68 0-1.158-.097-1.641-.328-.624-.297-.918-.75-.873-1.348.046-.643.36-1.1.91-1.32.505-.204 1.115-.392 1.78-.245.926.204 1.591-.055 2.09-.816.561-.854 1.371-1.126 2.066-.693.857.534.399 1.41.152 1.88l-.073.14c-.843 1.683-2.334 2.676-4.087 2.724zm57.434 82.98a.7.7 0 0 1 .054.61c-.203.603-.675.697-1.061.697-.098 0-.192-.007-.273-.012-.08-.005-.16-.01-.237-.01l-.032-.003c-.535-.056-1.07-.115-1.604-.174-2.337-.256-4.753-.523-7.142-.58-.648-.015-1.178-.216-1.494-.566-.249-.275-.363-.64-.33-1.056.036-.448.225-.81.546-1.049.382-.283.939-.371 1.524-.243.925.202 1.847.418 2.768.633 2.147.503 4.367 1.023 6.584 1.35.317.046.565.19.697.404zm-37.465-37.985c.3.666.225 1.356-.165 1.811l-.307.36c-1.5 1.766-3.053 3.593-5.51 4.286-.331.093-.67.117-.942.136-.101.008-.194.013-.274.023l-.042.005-.042-.005a18.66 18.66 0 0 0-.577-.07c-.396-.042-.739-.079-1.081-.178-1.442-.42-1.442-1.26-1.313-1.723.112-.404.447-1.38 1.143-1.737.294-.15.62-.168.938-.05 1.712.628 2.716-.2 3.878-1.162.288-.238.575-.475.874-.69a9.863 9.863 0 0 0 1.592-1.427c.23-.257.582-.59.996-.528.437.068.638.516.832.949zm-15.27-28.716c-.62.528-1.2.794-1.732.794-.1 0-.197-.01-.293-.028-.563-.11-1.04-.533-1.416-1.257-.663-1.275-1.046-2.753-1.169-4.517l-.004-.09.043-.103c.492-.923 1.17-1.4 2.018-1.415 1.078-.03 1.917.326 2.484 1.027 1.202 1.486.767 4.048.525 5.08l-.02.085-.06.064a4.773 4.773 0 0 1-.376.36zm19.616-3.026l-.07.115c-.45.488-1.008.827-1.705 1.038-.42.126-.8.19-1.143.19-.983 0-1.658-.527-2.083-1.612-.486-1.24-.494-2.628-.021-4.125.262-.826.795-1.42 1.541-1.718l.085-.033.088.014c.824.133 1.507.366 2.09.71 1.527.906 1.863 3.534 1.218 5.42zm-14.604 26.74c-.082 0-.165-.006-.25-.016l-.145-.015c-.404-.041-.86-.088-1.163-.365l-.234-.215c-1.161-1.067-2.259-2.074-3.66-2.75-.397-.191-.814-.666-.544-1.843.38-1.652.903-3.233 1.366-4.56 1.826-5.246 3.64-10.932 4.537-16.969.219-1.476.064-2.824-.462-4.009-.406-.915-.098-1.607.916-2.055.506-.224.95-.253 1.317-.088.35.159.605.484.757.965.35 1.115.746 2.378.685 3.735-.122 3.083-.854 6.104-1.56 9.024-.497 2.05-1.164 4.07-1.809 6.024-.623 1.888-1.268 3.841-1.75 5.801-.229.925-.215 1.58.53 2.186.359.293.674.63.98.957.431.463.84.9 1.358 1.215.496.3 1.004.877.616 1.92-.255.688-.778 1.057-1.485 1.057zM53.459 99.08c-2.533-.326-5.084-.817-7.55-1.292-2.553-.492-4.916-1.564-7.2-2.601-1.139-.517-2.317-1.052-3.509-1.51-2.375-.915-4.63-2.204-6.812-3.451L28 90.006c-3.1-1.77-5.278-4.385-7.802-7.62-2.784-3.567-4.03-7.612-3.808-12.364.136-2.91-.076-5.842-.281-8.678-.124-1.71-.252-3.477-.3-5.215-.17-5.937 1.46-11.517 4.982-17.058 2.59-4.078 6.173-7.02 11.274-9.26 3.648-1.6 7.581-2.492 11.386-3.355.687-.155 1.374-.31 2.059-.47 2.546-.594 5.174-1.026 7.716-1.445 1.905-.313 3.874-.638 5.798-1.027.721-.147 1.443-.334 2.14-.515 1.384-.36 2.817-.731 4.278-.784.929-.033 1.877-.01 2.793.01.588.014 1.175.027 1.762.027h.008c2.54 0 5.094-.209 7.565-.41 1.028-.083 2.057-.167 3.086-.236 1.03-.07 2.14.093 3.031.223 1.434.21 2.883.146 4.285.085 1.507-.067 3.066-.135 4.571.146.31.059.624.076.926.093.295.017.574.032.844.083 3.55.666 6.311 1.084 8.954 1.352 2.885.294 5.19 1.268 7.043 2.978.913.842 1.934 1.59 2.922 2.314 1.285.942 2.614 1.916 3.671 3.08l.303.333c2.944 3.237 5.99 6.584 6.623 11.228.212 1.55.3 3.172.271 4.962v.01c.02 1.173.086 2.36.15 3.507.097 1.706.198 3.47.137 5.206-.19 5.451-1.27 10.331-3.211 14.504-1.47 3.162-4.069 6.042-7.723 8.561a52.466 52.466 0 0 1-2.395 1.526c-1.566.959-3.186 1.95-4.57 3.246-.89.834-1.937 1.387-3.044 1.972-.435.23-.87.46-1.295.707-1.348.786-2.543 1.788-3.699 2.758-.53.446-1.061.89-1.606 1.315-.86.669-1.818 1.24-2.745 1.79-1.415.842-2.877 1.712-4.074 2.973-1.069 1.128-1.25 2.18-.585 3.413.64 1.187 1.221 2.365 1.31 3.729.04.622-.009.985-.153 1.11-.137.117-.47.117-1.022-.002-1.173-.253-2.15-.758-3.077-1.591l-.287-.258c-1.519-1.365-3.09-2.776-4.398-4.389-.623-.769-1.498-.904-2.271-1.024-.258-.04-.516-.078-.761-.142a8.488 8.488 0 0 0-2.121-.262c-1.147 0-2.348.216-3.59.648-1.966.683-3.578.96-5.227.906-1.582-.058-3.158.19-4.682.428-.89.14-1.81.283-2.717.363-2.28.204-4.541-.09-6.73-.372l-.257-.034zm40.145 9.618c.694 0 1.264-.244 1.533-.659.168-.26.303-.707-.012-1.365-.595-1.239-.925-2.591-1.245-3.899-.265-1.083-.54-2.203-.963-3.268-.297-.747-.189-1.086.507-1.578 1.78-1.259 3.546-2.594 5.253-3.885.777-.588 1.554-1.175 2.334-1.758 3.242-2.42 6.693-4.685 10.03-6.875l2.057-1.352c2.848-1.88 5.805-4.02 8.137-6.922 4.13-5.142 5.177-11.558 5.834-17.168.528-4.504.166-9.114-.183-13.573l-.053-.675c-.267-3.438-.854-7.03-3.31-10.003-.157-.19-.32-.38-.483-.569-.498-.58-1.014-1.181-1.376-1.832-.937-1.69-2.29-3.18-4.135-4.556-2.042-1.521-4.356-3.246-6.495-5.11-1.945-1.696-4.2-2.643-6.894-2.896l-1.78-.163c-3.172-.288-6.451-.585-9.637-1.164-1.538-.28-3.1-.254-4.61-.23-.875.015-1.78.03-2.663-.016-3.361-.175-6.397-.297-9.518-.016a45.71 45.71 0 0 0-1.886.221c-1.143.15-2.326.304-3.51.29-.605-.006-1.211-.022-1.817-.038-2.717-.071-5.526-.146-8.285.628-3.102.871-6.147 1.685-9.302 2.07-3.187.39-6.348 1.13-9.405 1.847-1.222.287-2.443.574-3.668.839-3.568.773-6.818 2.435-9.962 4.04-1.115.57-2.268 1.16-3.415 1.698-1.215.571-2.33 1.544-3.225 2.812-1.805 2.557-3.326 4.86-4.653 7.042-2.315 3.807-3.46 8.207-3.607 13.847-.012.45-.054.914-.096 1.363-.089.968-.18 1.97.015 2.984.502 2.603.667 5.39.521 8.772v.014c0 .429-.006.858-.01 1.287-.011.94-.022 1.911.02 2.87.135 2.988.365 5.875 1.687 8.335 3.483 6.484 7.773 10.896 13.117 13.489 1.276.62 2.558 1.285 3.798 1.928 4.052 2.105 8.243 4.28 12.949 5.21 5.203 1.026 9.574 1.7 13.995 1.663 5.484-.05 10.791-.609 15.774-1.662 1.663-.35 3.257-.591 4.48.313.618.457 1.163 1 1.74 1.576.614.612 1.249 1.246 1.947 1.732.028.05.051.242.024.396-.114.643-.022 1.153.276 1.517.443.543 1.22.626 1.767.641.862.024 1.63.318 2.444.629l.28.106a17.033 17.033 0 0 0 5.604 1.072l.075.001zm56.136 80.73c-.399-.598-1.113-.777-1.866-.467-.995.41-1.995.961-2.568 2.203-1.72 3.73-2.9 4.435-7.018 4.187l-.406-.023c-1.465-.083-2.98-.168-4.187-.903-2.245-1.368-3.94-2.656-5.338-4.054-.419-.42-.917-.767-1.399-1.104-.673-.47-1.308-.913-1.694-1.509-.793-1.224-1.704-2.377-2.583-3.493-1.235-1.564-2.512-3.182-3.474-5.009-2.435-4.623-3.978-9.091-4.718-13.661-.87-5.369-.904-11.024-.935-16.013-.029-4.672.078-9.425.182-14.021.045-2.013.09-4.025.125-6.037.012-.714.062-1.204.62-1.51 1.378-.753 2.569-1.769 3.72-2.752.304-.26.61-.52.92-.777 1.813-1.504 1.813-1.503 3.83-.135 1.552 1.052 2.592 1.383 3.475 1.11.883-.274 1.549-1.131 2.227-2.867.383-.979.94-1.252 1.925-.942.98.307 1.723.951 2.322 1.541 2.212 2.185 4.398 1.073 6.243-.305.144-.106.274-.234.404-.362.243-.24.452-.446.736-.47 1.043-.09 2.051-.354 3.025-.608.632-.164 1.284-.334 1.93-.452.434-.08 1.04-.11 1.45.203.288.217.457.585.504 1.091.272 2.946 1.034 6.068 2.397 9.825 1.283 3.536 2.804 7.302 4.648 11.513 1.19 2.719 2.9 5.157 4.551 7.515 1.463 2.088 2.975 4.247 4.106 6.577.397.817.613 1.6.7 2.538.297 3.209-1.504 10.533-2.553 13.56-.416 1.2-1.068 2.472-2.053 4.003-.887 1.38-2.354 2.267-4.48 2.712-2.608.546-4.417 1.38-5.868 2.702-1.482 1.351-.965 2.38-.524 2.872.41.46.768.95 1.095 1.496l.055.093.1.04c.164.069.331.129.496.195.004.044.004.088.008.133a7.829 7.829 0 0 1 0 1.616 1.353 1.353 0 0 0-.13-.25zm51.188 33.034c-.117-.473-.222-.95-.328-1.426-.254-1.15-.517-2.34-.941-3.46a26.112 26.112 0 0 1-.29-.819c-.48-1.405-1.025-2.999-2.643-3.758-2.508-1.176-5.11-2.252-7.627-3.292l-.493-.204c-.67-.277-1.537-.551-2.292-.211-.507.228-.89.71-1.138 1.432-.08.23-.561.492-.72.578-.945.514-1.73 1.299-2.402 2.398-.23.376-.462.75-.696 1.126-.906 1.458-1.843 2.964-2.563 4.55-3.401 7.481-10.03 11.378-16.528 14.728-2.4 1.237-5.134 1.652-7.778 2.053a74.84 74.84 0 0 0-2.762.454c-.758.143-1.88.282-2.871-.178-2.747-1.277-5.62-2.363-8.4-3.414-2.987-1.13-6.075-2.297-9.002-3.7l-7.07-3.391c.703-.155 1.368-.389 2.017-.617.78-.275 1.517-.534 2.29-.653.09-.015.2-.009.309-.005.303.01.645.022.877-.21.13-.13.193-.308.186-.527-.01-.273-.1-.482-.269-.62-.29-.237-.692-.172-1.015-.12-.09.016-.176.03-.253.035-1.742.12-3.488.251-5.272.386l-1.297.1c-.844.114-1.587.14-2.274.075a.469.469 0 0 1-.093-.024c-.036-.01-.07-.022-.107-.03l-.06-.016-.062.009c-.35.047-.746-.076-1.208-.375-.358-.232-.695-.497-1.053-.778-.747-.587-1.51-1.186-2.453-1.46.364-.173.708-.367 1.047-.559.234-.13.465-.261.7-.383 2.316-1.201 4.421-2.142 6.437-2.877 1.944-.71 3.339-1.565 4.388-2.693a15.91 15.91 0 0 1 2.16-1.919c.598-.446 1.201-.885 1.803-1.324 2.328-1.697 4.736-3.45 6.823-5.605 1.4-1.445 2.817-3.29 2.712-6.03-.016-.433-.004-.509.506-.609 2.455-.485 4.514-2.056 6.122-4.668.215-.35.41-.713.606-1.076.431-.804.838-1.563 1.468-2.193.068-.068.128-.135.183-.204a7.01 7.01 0 0 1-.433 1.071c-.577 1.14-.415 2.273.446 3.107l.694.675c1.887 1.84 3.84 3.742 6.086 5.268.457.31.912.624 1.367.938 3.702 2.557 7.53 5.2 12.459 5.677 3.691.357 7.133 1.828 10.013 3.22.68.33 1.4.61 2.156.61.406 0 .823-.081 1.25-.278.457-.208 1.083-.495 1.186-1.245.12-.86-.593-1.135-1.018-1.3l-.103-.04a122.469 122.469 0 0 0-4.441-1.67 67.7 67.7 0 0 1-1.635-.611c-1.975-.758-4.018-1.542-6.258-1.653-2.2-.108-3.822-.53-5.11-1.33a52.828 52.828 0 0 0-2.186-1.263c-1.09-.607-2.217-1.236-3.259-1.976-1.57-1.115-3.038-2.402-4.458-3.645-1.046-.916-2.128-1.863-3.245-2.739a1.33 1.33 0 0 1-.503-.924c-.168-1.402-.154-2.684.038-3.893l.195.05.259.064.24.024.129-.19c.19-.281.34-.255.816-.125 2.323.64 4.772.66 7.937.067l.587-.112c2.24-.433 4.354-.841 6.483.326.68.373 1.508.419 2.31.463.148.008.294.016.438.027.165.011.332.012.498.012h.042c.785 0 1.206.039 1.446.797.181.573.98.615 1.47.504 2.193-.496 4.678-1.058 6.485-2.874 4.113-4.134 9.746-9.794 10.24-15.611.107-1.247.316-3.023.537-4.904.34-2.89.725-6.166.803-8.134.127-3.25-.27-5.299-.655-7.28-.177-.92-.362-1.87-.487-2.922l-.039-.33c-.307-2.602-.624-5.292-2.384-7.611-.743-.98-1.295-2.14-1.829-3.264-.557-1.172-1.134-2.386-1.935-3.412-2.037-2.61-3.782-5.471-5.469-8.24-1.203-1.973-2.447-4.014-3.79-5.951-.936-1.352-1.62-2.874-2.28-4.345-.17-.378-.34-.756-.513-1.131-1.623-3.507-3.677-6.704-6.259-10.426-.509-.733-.947-1.544-1.37-2.328-.944-1.746-1.918-3.55-3.767-4.764a7.639 7.639 0 0 1-.315-.222c-.524-.383-1.177-.859-1.945-.084-.289.292-.429.648-.404 1.028.031.466.31.946.747 1.284 1.731 1.342 2.659 3.18 3.64 5.126l.276.547c.643 1.263 1.516 2.373 2.36 3.447.804 1.02 1.634 2.077 2.244 3.245.454.87.903 1.743 1.354 2.615 1.976 3.832 4.02 7.793 6.377 11.531a344.646 344.646 0 0 0 3.141 4.86c2.407 3.678 4.896 7.483 7.001 11.44 2.339 4.396 4.242 12.606 3.231 17.357-.358 1.685-.335 3.466-.31 5.353.027 2.233.057 4.541-.524 6.995-.87 3.675-3.526 6.81-6.095 9.841-.686.81-1.395 1.646-2.054 2.476a1.801 1.801 0 0 0-.178.298c-.024.048-.059.118-.09.168-.502-.376-.974-.521-1.402-.428-.696.15-1.086.874-1.37 1.403l-.05.091c-.47.87-1.017.993-1.853.922-1.601-.137-3.17-.263-4.757-.283-1.203-.016-1.858-.19-2.127-.563-.266-.371-.219-1.069.15-2.196.03-.094.073-.184.115-.274.066-.14.13-.28.17-.428.189-.716-.012-1.153-.213-1.393-.206-.245-.614-.523-1.377-.459-1.579.133-1.761 1.547-1.84 2.15-.13 1.012-.596 2.242-2.073 2.359-.812.064-1.631.166-2.424.265-1.883.235-3.83.476-5.76.213-.918-.126-1.753-.45-2.637-.792-.543-.21-1.104-.428-1.682-.592a2.656 2.656 0 0 0-.426-.07c-.42-.045-.442-.085-.45-.163-.016-.156.04-.214.487-.357.144-.045.286-.092.406-.151.816-.409 1.694-.582 2.624-.765a18.5 18.5 0 0 0 1.601-.364c2.68-.778 4.462-2.174 5.61-4.394 1.227-2.372 2.115-4.788 2.992-7.26.608-1.716 1.1-5.434 1.494-8.423.192-1.452.358-2.705.506-3.511.047-.255-.01-.56-.168-.906-1.463-3.21-3.056-5.845-4.867-8.055a30.559 30.559 0 0 1-2.668-3.841c-2.56-4.342-4.51-8.98-6.09-12.975-1.187-2.996-2.414-6.095-2.855-9.358l-.017-.116c-.028-.202-.075-.538-.025-.604 0 0 .098-.067.522.022 1.078.227 1.435-.646 1.67-1.222l.089-.211c.176-.405.113-.71.03-.895-.124-.273-.377-.478-.73-.592-1.928-.62-2.845-1.846-2.884-3.856-.017-.828-.519-1.66-1.447-1.66l-.028.002c-1.26.022-1.406 1.29-1.46 1.768-.009.065-.013.129-.016.192-.019.293-.023.362-.278.443-.77.245-1.535.534-2.276.813-.628.236-1.256.474-1.892.687-1.57.524-2.962 1.06-4.084 2.297-.346.38-.741.582-1.144.583h-.001c-.425 0-.853-.223-1.236-.644-.896-.987-1.97-1.667-2.903-2.203-1.161-.665-2.483-.82-3.627-.424-.975.337-1.72 1.037-2.095 1.972-.38.942-.71 1.41-1.076 1.52-.352.105-.871-.087-1.63-.61-2.217-1.525-3.967-.78-5.528.253-.466.308-.916.654-1.351.99-.855.656-1.735 1.333-2.79 1.769.075-1.014.282-1.972.64-2.978.101-.286.211-.57.32-.856.335-.868.68-1.766.82-2.795.113-.831.284-2.088-1.124-2.344-.562-.101-1.036-.02-1.412.246-.43.305-.71.843-.831 1.6-.083.519-.137 1.052-.19 1.568-.19 1.824-.366 3.545-1.677 4.95-.191.205-.208.49-.22.743-.007.093-.01.188-.027.274-.264 1.29.033 2.434.349 3.648l.093.361c.259 1.016.149 2.081.032 3.208-.063.608-.127 1.236-.128 1.854-.006 2.47-.069 4.982-.13 7.41-.05 1.969-.102 4.005-.122 6.008-.023 2.21.11 4.447.24 6.61.104 1.76.212 3.578.235 5.364.005.4.005.8.005 1.199-.002 1.733-.003 3.525.468 5.287.076.285.16.568.243.85.224.766.437 1.49.517 2.26.23 2.241.958 4.367 1.663 6.423.242.706.484 1.411.707 2.122.603 1.927 1.701 3.568 2.762 5.154l.4.598c2.508 3.783 5.073 7.39 8.856 9.932l.178.114c.417.262.592.41.527.589-.095.26-.444.368-1.096.369-2.807-.024-5.588-.62-8.277-1.196-.678-.146-1.356-.29-2.035-.428l-.208-.043c-.87-.182-1.77-.371-2.465.726-.742 1.168-.195 2.064.438 2.785.054.062.123.123.194.184.058.05.154.132.16.172-.049.1-.128.12-.571.027a9.916 9.916 0 0 1-3.198-1.24c-1.232-.75-2.363-.644-3.361.315-.234.225-.396.508-.552.782-.269.47-.45.758-.792.777-.39.026-.72-.262-1.103-.59-.269-.23-.548-.468-.88-.624-.166-.077-.323-.208-.488-.348a4.122 4.122 0 0 0-.43-.329c-2.168-1.38-3.888-3.317-5.552-5.188-.558-.628-1.116-1.256-1.691-1.865-2.31-2.448-3.377-5.463-3.263-9.218.091-3.023.633-6.033 1.158-8.943.287-1.595.585-3.245.806-4.882.031-.232.066-.463.101-.692.17-1.13.347-2.298.067-3.52-.307-1.345-.326-2.756-.343-4.12-.014-1.092-.028-2.222-.188-3.339-.18-1.253-.367-2.734-.402-4.213-.046-1.951.386-3.868.805-5.722.206-.915.419-1.862.574-2.806.094-.571.174-1.144.255-1.718.187-1.337.38-2.72.755-4.048.178-.629.428-1.248.67-1.847.305-.752.62-1.53.8-2.346 1.059-4.77 2.202-9.578 3.281-14.062.817-3.394 2.04-6.848 3.969-11.2.414-.935.86-1.54 1.808-1.676 2.02-.289 2.968-1.756 3.837-3.364.914-1.691 1.762-3.201 2.922-4.588.327-.392.551-.63.897-.63h.004c.405.001.807-.005 1.21-.013 1.283-.021 2.612-.043 3.888.253.11.026.403.094.458.187.026.045.02.144-.016.272-.24.84.096 1.494.923 1.796.815.298 1.575.066 2.083-.638.352-.49.759-.957 1.152-1.409.69-.794 1.404-1.614 1.906-2.625.239-.482.794-.89 1.523-1.121.926-.292 1.952-.25 2.631.119.46.25 1.154.626 1.726.016.489-.522.662-1.262.516-2.092a.735.735 0 0 0 .33.347c.405.214.796.47 1.208.743 1.13.745 2.298 1.515 3.766 1.335 2.817-.345 5.943-.998 7.373-4.402a1.46 1.46 0 0 1 .278-.388c.166-.18.302-.23.353-.217.034.008.085.073.123.2.426 1.399 1.579 1.68 2.597 1.927l.361.087c.455.102.74.183.874.432 1.607 3 4.503 4.249 7.304 5.457l.078.034c.287.123.546.32.82.529.476.362 1.017.773 1.773.799h.003l.099.002c.926 0 1.575-.373 1.787-1.032a.956.956 0 0 0-.052-.75c-.173-.33-.55-.587-1.12-.761-.712-.218-1.332-.605-1.989-1.015-.642-.4-1.306-.815-2.072-1.066-1.603-.525-2.858-1.618-3.728-3.248-.325-.607-.808-1.35-1.681-1.71a50.42 50.42 0 0 0-.711-.283c-1.067-.419-2.074-.815-2.97-1.543-.697-.568-1.726-.516-2.896.145-.683.385-1.278.934-1.93 1.778-1.564 2.026-4.514 2.583-6.717 1.267l-.094-.056c-.507-.305-1.032-.62-1.708-.623h-.01c-.633 0-1.1.294-1.349.851-.133.3-.19.571-.181.806-.218-.606-.745-.956-1.371-.881-.343.04-.688.075-1.033.11-2.7.27-5.49.549-7.015 3.621l-.036.072c-.03.062-.086.18-.131.24a.504.504 0 0 1-.051-.044c-.545-.545-1.15-.458-1.636-.389-.142.02-.284.042-.426.045-.631.015-1.264.076-1.876.136-1.343.13-2.61.253-3.927-.063-1.763-.423-3.184.198-4.23 1.846-.565.89-1.083 1.82-1.584 2.717-.487.873-.99 1.776-1.531 2.633-.075.118-.145.24-.214.362-.324.57-.548.92-1.061.982-2.241.267-3.259 1.908-3.896 3.31-.204.448-.41.896-.617 1.343-1.533 3.328-3.12 6.769-3.613 10.65-.243 1.906-.83 3.801-1.398 5.634-.61 1.966-1.24 3.998-1.473 6.104-.147 1.332-.616 2.618-1.07 3.86-.392 1.08-.8 2.195-1.01 3.36-.158.884-.31 1.77-.463 2.656a172.72 172.72 0 0 1-.888 4.9l-.066.332c-.782 3.882-1.52 7.549-.9 11.698.06.406.123.815.187 1.224.547 3.52 1.112 7.162.155 10.82-.621 2.373-.89 4.864-1.152 7.273-.117 1.074-.237 2.185-.386 3.267-.337 2.426-.473 5.051.79 7.802.821 1.786 1.799 3.254 2.99 4.49.822.852 1.593 1.791 2.338 2.7 1.718 2.093 3.493 4.258 6.087 5.616.763.4 1.483.94 2.178 1.463 1.38 1.036 2.806 2.107 4.749 2.276.147.013.39.175.465.31.412.748 1.077 1.107 1.72 1.454.337.181.655.353.93.576.406.33.897.479 1.378.418.51-.063.98-.352 1.326-.814.393-.526.63-1.367-.479-2.386l-1.641-1.513c.843.124 1.684.1 2.506.078.954-.024 1.855-.05 2.743.14.93.195 1.566-.06 1.892-.761.276-.591.545-1.47-.282-2.27l-.058-.054c-.037-.036-.07-.067-.098-.097.88.23 1.778.299 2.652.366.405.031.811.062 1.215.11 2.219.258 4.689.324 6.117-2.084.489.32.964.672 1.426 1.015 1.595 1.183 3.247 2.414 5.53 2.343 1.024-.034 1.574.19 1.631.65.03.238.077.481.125.729.186.952.362 1.852-.485 2.607-.732.654-1.415 1.375-2.075 2.072-1.126 1.188-2.289 2.416-3.703 3.309-1.737 1.096-3.283 2.118-4.615 3.53l-.06.063c-.525.557-1.069 1.133-1.727 1.58-1.874 1.268-3.984 2.174-6.025 3.05-1.112.477-2.261.97-3.365 1.518-.649.322-1.22.535-1.75.652l-.102.042c-1.05.654-2.044 1.136-3.041 1.475a.98.98 0 0 1-.565.033l-.142-.035-.12.08c-.377.257-.785.519-1.219.705a8.183 8.183 0 0 1-1.765.518l-.103.037c-1.154.659-2.212 1.21-3.477 1.28-1.056.059-1.853.682-2.657 1.31-2.635 2.057-4.042 4.849-4.302 8.535-.035.5-.097 1-.158 1.499-.173 1.404-.351 2.857.055 4.344.307 1.126.958 1.542 1.983 1.268.443-.118.723-.317.853-.609.195-.437-.018-.922-.233-1.343a1.71 1.71 0 0 1-.153-.836c.218-3.87 1.091-6.796 2.747-9.21.549-.8 1.264-1.66 2.41-1.97.465-.125.92-.295 1.36-.46.632-.236 1.229-.46 1.85-.56a16.26 16.26 0 0 0 1.313-.29c1.065-.265 2.073-.516 3.075-.23 1.24.354 2.468.853 3.656 1.337.423.172.845.344 1.27.51.236.093.364.214.428.406l.054.161.164.048c1.374.398 2.747.903 4.043 1.39l.107.047c.175.046.351.119.538.223 2.535 1.414 5.23 2.585 7.834 3.718 1.713.744 3.484 1.515 5.189 2.345 1.111.54 2.269 1.001 3.389 1.446 1.342.534 2.73 1.086 4.037 1.778 2.683 1.42 5.563 2.792 8.802 2.792.255 0 .512-.008.772-.026 3.375-.229 6.53-1.204 10.008-2.359 2.947-.978 5.631-2.625 8.228-4.218a149.65 149.65 0 0 1 2.147-1.3c2.256-1.332 3.923-3.271 5.387-5.168.363-.471.74-.933 1.117-1.395 1.174-1.443 2.388-2.935 3.186-4.678 1.291-2.82 2.866-5.248 4.816-7.42 1.076-1.202 1.68-.876 2.682-.337 1.261.68 2.619 1.376 4.135 1.77 1.48.383 2.555 1.305 3.028 2.595.357.975.922 1.83 1.469 2.658.629.95 1.223 1.85 1.527 2.916.098.34.32.617.596.741a.883.883 0 0 0 .768-.025c.651-.31.475-1.023.409-1.29z"/>
    </g>
</svg>
