<svg xmlns="http://www.w3.org/2000/svg" width="250" height="250" viewBox="0 0 250 250">
    <g fill="none" fill-rule="evenodd">
        <path fill="#FFF" d="M-460-3341H980v5684H-460z"/>
        <path fill="#000" d="M236.096 114.586a8.415 8.415 0 0 0-.395 4.413c.071.409-.258.662-.645.81-.649.247-1.295.293-1.911-.092-.959-.6-1.311-1.557-1.04-2.648.473-1.898.742-3.798.294-5.749-.337-1.47-1.002-2.686-2.385-3.57-.78-.5-1.15-1.289-.598-2.073.5-.708 1.392-.88 2.19-.424.719.411 1.403.892 1.936 1.545 1.576 1.93 2.493 4.042 2.405 6.483-.016.425.094.855.149 1.305M191.595 95.58c.03-2.104.133-3.986.983-5.338 2.136-3.395 2.57-7.508 4.773-10.836.46-.693.879-1.401 1.51-1.95.643-.56 1.978-.633 2.328-.05.455.756 0 1.31-.506 1.892-.652.75-1.05 1.688-1.423 2.606-1.323 3.264-2.336 6.693-3.982 9.774-1.196 2.237-1.353 4.412-1.279 6.762.02.59.152 1.132.48 1.64.4.62.422 1.315-.25 1.704-.68.393-1.413.263-1.864-.478-.511-.84-.84-1.752-.845-2.764-.004-1.116-.182-2.238.075-2.962m56.32 17.813c-.299 1.907-.099 3.595-1.38 4.905-.434.443-.784.967-1.507.551-.637-.366-.484-.848-.279-1.434.438-1.25.733-2.518.658-3.885-.179-3.232-.244-6.463-.986-9.649-.375-1.608.035-3.292-.315-4.943-.763-3.595-1.991-7.002-3.985-10.133-.175-.276-.472-.477-.676-.74-.472-.607-.565-1.213.13-1.738.644-.488 1.216-.425 1.8.168 1.77 1.796 2.846 3.97 3.602 6.288.318.971.963 1.75 1.31 2.681.642 1.72.686 3.537.834 5.324.093 1.133.157 2.258.35 3.387.54 3.162.623 6.351.444 9.218m-65.206-16.774c.064-.727.096-1.458.2-2.18.108-.753.146-1.594.728-2.132 2.157-1.994 1.896-4.513 1.639-7.076-.142-1.418-.88-2.608-1.263-3.929-.436-1.504.444-2.485 1.992-2.199 1.693.313 2.079-.06 2.167-1.774.1-1.973.076-3.932-.144-5.894-.115-1.026.151-1.996.77-2.782 1.032-1.309 2.225-2.464 3.6-3.412.572-.394 1.154-.257 1.615.084.748.554 1.42 1.217 2.1 1.86.237.223.428.526.202.876-.198.307-.535.458-.845.328-1.611-.671-2.538.427-3.545 1.353-1.087 1-1.308 2.262-1.174 3.675.177 1.88-.129 3.755-.068 5.644.058 1.82-.76 2.655-2.555 2.94-1.001.16-1.148.496-.81 1.434.913 2.532 1.273 5.14.62 7.808-.267 1.09-.6 2.068-1.654 2.798-1.343.928-1.605 2.54-1.537 4.097.026.583.095 1.215.29 1.819.22.676.556 1.136 1.182 1.453 1.052.531 1.512 1.503 1.064 2.121-.411.568-2.113.623-2.8.157-1.665-1.13-1.944-2.85-1.955-4.67-.004-.798.128-1.598.198-2.397l-.017-.002m-6.683 16.084c-.953-1.198-.283-2.985 1.222-3.356 1.779-.438 3.4-.06 4.956.767.72.382 1.224.946 1.613 1.715 1.236 2.448 2.774 4.694 4.937 6.444.912.74 1.69 1.599 2.365 2.559.742 1.056 3.8 1.83 4.93 1.243.523-.271.782-.722.904-1.299.757-3.577.922-7.22 1.322-10.839.474-4.284.66-8.599 1.344-12.869.245-1.532.903-3.08.477-4.7a.482.482 0 0 1 .243-.566c1.468-.764 2.286-2.47 4.144-2.72.776-.104.918-1.006 1.205-1.69.575-1.373 1.208-2.754 2.809-3.27.68-.219 1.281-.18 1.777.434.427.528.953.74 1.65.447.557-.234 1.12-.093 1.483.394.41.548.866.68 1.52.515.964-.244 1.631.182 2 1.086.522 1.28.651 2.617.551 3.985-.089 1.221-.09 2.255 1.265 3.036 1.222.704 1.431 2.306 1.982 3.558.263.6.43 1.22.877 1.738.801.93.606 2.113.525 3.163-.122 1.594.161 3.199-.297 4.8-.214.747.168 1.649.19 2.483.05 1.88.25 3.78-.49 5.596-.066.163-.09.366-.063.54.346 2.238-.239 4.316-.953 6.41-.627 1.842-.287 3.856-.805 5.74-.56 2.039-1.074 4.09-1.618 6.133-.39 1.468-.892 2.882-.985 4.45-.11 1.844-.786 3.602-1.71 5.237-.304.536-.6 1.104-.747 1.696-.492 1.985-1.476 3.776-2.035 5.76-.815 2.895-1.646 5.787-2.48 8.678-.917-.255-1.833-.513-2.749-.771.211-.885.429-1.769.72-2.627.579-1.696 1.076-3.404 1.564-5.124.448-1.577.59-3.268 1.412-4.711 1.26-2.214 1.804-4.71 2.541-7.073.7-2.246.802-4.698 1.626-6.99.777-2.159 1.082-4.458 1.507-6.72.437-2.33.916-4.676 1.205-7.007.359-2.881.956-5.751.888-8.702-.06-2.651-.21-5.309-.026-7.97.072-1.046-.337-2.075-1.117-3.21-.09.61-.163.894-.168 1.18-.066 4.157-.147 8.314-.163 12.472-.004.962-.427 1.56-1.237 1.843-.78.273-1.298-.296-1.735-.852-.56-.713-.427-1.532-.235-2.318.201-.823.334-1.646.329-2.494-.03-5.292-.05-10.585-.09-15.878-.008-1.094-.074-2.187-.128-3.28-.012-.244.061-.597-.229-.678-.387-.11-.429.324-.568.543-1.104 1.736-1.275 3.726-1.312 5.685-.062 3.355-.07 6.706-.28 10.061-.105 1.672-.36 3.4.14 5.096.187.633.026 1.352-.599 1.753-.636.409-1.31.57-2.054.102-.706-.444-.804-1.034-.742-1.786.383-4.625 1.135-9.233.844-13.893-.136-2.164-.145-4.287.303-6.428.169-.81.482-1.63.489-2.76-1.092 1.07-1.302 2.353-1.98 3.354-.374.552-.923 1.175-.817 1.88.28 1.868-.252 3.708-.087 5.558a9.351 9.351 0 0 1-.223 3.048c-.536 2.226-.518 4.477-.3 6.73.06.618-.128 1.227.075 1.852.3.922-.235 1.92-1.08 2.176-1.017.306-2.083-.218-2.348-1.25-.152-.591-.184-1.232-.167-1.848.108-3.66.91-7.238 1.31-10.865.168-1.533.188-2.997-.363-4.564-.53.525-.768 1.012-.85 1.557-.393 2.6-1.327 5.077-1.748 7.664-.268 1.649-.564 3.33-.51 4.985.088 2.663.14 5.297-.108 7.967-.221 2.385-1 4.664-1.069 7.071-.027.931-.71 2.051-1.559 2.187-1.1.177-2.2.55-3.267.593-2.584.103-4.868-.983-6.636-2.828-1.706-1.782-3.178-3.787-5.06-5.41-.27-.233-.467-.563-.659-.87a229.037 229.037 0 0 1-2.056-3.367c-.278-.462-.602-.824-1.439-.79.599.793.579 1.748 1.1 2.37 1.529 1.825 2.477 3.924 3.224 6.145.08.241.202.473.334.691 1.28 2.114 2.52 4.244 3.908 6.299 1.67 2.474 3.853 4.388 6.18 6.109 1.484 1.097 2.958 2.122 3.913 3.713.767 1.28 1.494 2.591 1.98 4.015.121.355.166.708.029 1.073-.896 2.382-1.801 4.76-2.68 7.15-.734 1.995-1.372 4.023-2.026 6.047-.89-.231-1.783-.46-2.677-.68.325-.821.642-1.643.85-2.502.482-1.99 1.113-3.919 1.842-5.823.311-.814.771-1.556 1.102-2.37.735-1.81.035-3.268-.779-4.766-1.08-1.988-2.784-3.352-4.618-4.551-2.013-1.316-3.957-2.86-5.149-4.836-1.274-2.11-2.885-4.001-3.954-6.295-.78-1.673-1.532-3.345-2.184-5.072-.164-.434-.476-.82-.757-1.2-.871-1.178-1.72-2.36-2.198-3.775a4.526 4.526 0 0 0-.743-1.333m-32.518 4.948c-1.235-.413-2.662.179-3.96-.578-.561-.327-1.183-.011-1.478.634-.208.458-.539.737-1.06.722-.552-.016-1.03.17-1.523.385-.952.415-2.082.108-2.459-.608-.317-.604.142-1.514 1.068-2.031a3.94 3.94 0 0 1 1.08-.423c.817-.172 1.516-.498 2.144-1.066.735-.663 1.748-.956 2.55-.368 1.411 1.033 2.641.357 3.952-.061 1.106-.353 2.22-.024 3.297.143.697.108.925 1.192.404 1.606-1.141.908-2.412 1.577-4.015 1.645M148.296 85c-.687-.008-1.256-.2-1.524-.966-.102-.293-.292-.553-.446-.825-1.048-1.859-.423-3.505 1.58-4.123.246-.076.524-.106.777-.072 1.176.16 2.223 1.883 2.09 3.404-.128 1.444-1.244 2.608-2.477 2.582m-25.164-10.001c-.983.018-1.536-.148-1.884-.796-.416-.777-.27-1.318.587-1.514 1.568-.36 2.94-1.328 4.573-1.512.786-.09 1.304-.76 1.877-1.298.6-.562 1.297-1.355 2.162-.509.765.75.62 1.952-.25 2.755-.804.738-1.65 1.401-2.731 1.696-1.55.424-3.074.95-4.334 1.178M130.65 87c-1.41-.167-3.702-1.016-3.674-2.443.036-1.77 1.197-3.542 2.445-3.557 1.8-.02 3.446 1.784 3.506 3.847.037 1.293-.862 2.143-2.277 2.153m13.349-19.994c.617-.049.95.21 1.245.551 1.207 1.392 2.917 1.652 4.726 1.604.719-.02 1.435-.125 1.731.626.29.736-.32 1.036-.877 1.458-1.495 1.13-3.121.766-4.661.349-1.085-.294-2.19-.607-3.246-1.009-.93-.353-1.32-1.012-.881-1.795.437-.783.678-1.835 1.963-1.784M92.997 184.998c-1.416.048-2-.695-1.619-1.896.45-1.411.884-2.839 1.486-4.184 1.274-2.845 1.33-5.958 2.01-8.93.57-2.492 2.357-3.875 4.468-4.855 1.054-.49 1.42.473 1.745 1.23.347.806-.309 1.016-.832 1.204-2.415.867-3.17 2.978-3.49 5.228-.407 2.86-1.366 5.535-2.212 8.253-.3.963-.74 1.876-.764 2.917-.016.645-.38.98-.792 1.033m-52.325-75.34c.13-.845.41-1.4 1.106-1.594.761-.212 1.337.117 1.667.784.5 1.008.704 2.124.772 3.217.119 1.925.94 3.625 1.615 5.356.76 1.947 2.074 3.676 2.33 5.827.026.214.102.45.23.62 1.159 1.52 1.492 3.355 2.035 5.11.275.892.64 1.73 1.254 2.45.806.947 1.058 2.19 1.749 3.202.23.34.176.722-.194.976-.252.172-.472.342-.563.654-.139.478-.467.774-.983.737-.553-.04-1.093-.266-1.19-.843-.26-1.543-1.123-2.88-1.457-4.391-.144-.653-.356-1.265-.853-1.771a2.179 2.179 0 0 1-.538-.96c-.382-1.569-1.12-3.036-1.495-4.573-.395-1.617-1.106-3.037-1.828-4.483-.594-1.192-1.26-2.346-1.367-3.717-.038-.48-.298-.893-.563-1.309-1.062-1.668-.869-3.725-1.727-5.291m16.06-10.003c-.072 1.249-.162 2.312-.185 3.378-.017.86.395 1.224 1.284.919 2.893-.993 3.42-.305 3.075 2.631-.09.78-.437 1.838 1.018 1.947.388.028.603.462.568.853-.101 1.156.084 2.353-.608 3.424-.487.755-.722 1.571-.53 2.522.19.935-.507 1.651-1.453 1.67-.865.018-1.62-.76-1.532-1.676.106-1.1.315-2.186.741-3.22.124-.301.36-.673.04-.92-1.053-.818-.808-1.95-.863-3.034-.07-1.373.273-1.681-1.576-1.52-2.031.178-3.037-1.008-2.768-3.108.211-1.644.415-3.276.141-4.939-.167-1.013-.325-1.148-1.262-.63-.668.37-1.345.626-2.125.498-.573-.093-.96-.388-1.071-.97-.114-.598.154-1.028.713-1.212.755-.247 1.249-.91 2.033-1.125 2.072-.573 3.966.615 4.218 2.713.08.657.105 1.32.141 1.799m-38.57 37.473c-.01.381-.303.932-.655 1.48-.834 1.297-.78 2.248.362 3.313 1.464 1.363 2.058 3.075 2.45 4.935.477 2.253.907 4.487 2.036 6.6 1.118 2.096 1.895 4.379 2.963 6.522.28.561.482 1.183.475 1.834-.007.557-.325.902-.83 1.092-.477.18-.94.119-1.226-.31-1.256-1.889-2.88-3.608-2.978-6.047a1.836 1.836 0 0 0-.528-1.213c-1.206-1.259-1.65-2.843-1.929-4.47a36.578 36.578 0 0 0-1.116-4.673c-.22-.706-.545-1.421-1.203-1.712-2.05-.905-2.434-2.492-1.84-4.34.429-1.34-.006-2.83.868-4.06a7.035 7.035 0 0 1 1.928-1.868c.62-.4 1.009-.237 1.064.517.052.707.094 1.415.159 2.4m18.543-25.863c.067-1.247.16-2.356 1.3-3.03.666-.392 1.179-.316 1.504.38.32.685.629 1.404.182 2.177-.21.363-.208.773-.147 1.171.696 4.492 1.96 8.812 3.535 13.069.591 1.597 1.148 3.25 1.423 4.992.227 1.434.76 2.874 1.43 4.163.91 1.749.99 2.879-.155 4.38-.37.482-.838.562-1.318.233-.254-.175-.573-.457-.609-.726-.23-1.73-1.242-3.223-1.356-4.994-.112-1.749-.745-3.392-1.177-5.077-.589-2.293-1.785-4.322-2.492-6.555-.257-.808-.198-1.65-.336-2.473-.39-2.328-1.18-4.544-1.68-6.837-.068-.317-.078-.647-.104-.873M9.57 162c-.528-.096-1.088-.303-1.464-.746-1.228-1.445-2.859-2.385-4.148-3.751-.33-.35-.662-.685-.798-1.153a12.65 12.65 0 0 0-1.174-2.807c-.507-.885.145-1.907.529-2.8.259-.604.63-1.144.889-1.76 1.053-2.495-.112-4.495-1.337-6.402-.95-1.48-1.142-2.928-.692-4.61a34.409 34.409 0 0 1 2.224-5.995c.503-1.052.155-1.716-.95-1.865-.93-.127-1.791-.33-2.353-1.256-.494-.814-.356-1.463.31-2.05 1.496-1.312 2.816-2.78 3.816-4.555.41-.727.8-1.494 1.563-1.92.306-.17.598-.5.956-.224.383.294.248.722.141 1.124-.2.757-.475 1.478-.96 2.088-.871 1.096-1.338 2.523-2.55 3.353-.341.234-.471.78.132.907.93.195 1.96.417 2.263 1.388.375 1.201.152 2.548-.333 3.69a52.51 52.51 0 0 0-2.091 5.784c-.217.738.046 1.315.359 1.892a32.795 32.795 0 0 1 1.77 3.905c.816 2.132.337 4.165-.461 6.114-.435 1.062-.756 1.98-.026 2.995.124.173.244.4.25.607.063 1.8 1.373 2.579 2.615 3.178 1.42.687 2.002 2.012 2.759 3.215.394.628-.41 1.656-1.239 1.654m39.835-82.986c2.578-.032 3.496.558 4.313 2.726.489 1.298 1.137 2.52 1.783 3.739.695 1.314 1.777 2.067 3.365 2.05 2.19-.022 3.03 1.661 3.49 3.254.668 2.323 2.016 3.525 4.392 3.719 2.264.185 3.851 1.496 4.652 3.391.666 1.575 1.688 3.093 1.553 4.987-.067.961.55 1.868.442 2.957-.129 1.296-.571 2.376-1.263 3.417-.474.714-1.158 1.25-1.467 2.128-.243.696-1.032.765-1.705.401-.636-.343-.837-.844-.523-1.554.503-1.138 1.374-2.053 1.88-3.197.408-.927.491-1.857.198-2.76-.539-1.653-1.095-3.299-1.469-5-.106-.487-.456-.805-.856-1.094-1.135-.818-2.458-1.131-3.79-1.433-2.079-.472-3.548-1.548-3.85-3.784-.059-.43-.198-.848-.31-1.27-.273-1.03-.86-1.427-2.03-1.564-3.22-.379-4.09-.899-5.046-3.839-.337-1.035-.594-2.097-.936-3.13-.328-.993-.966-1.585-2.128-1.517-1.168.068-2.223.484-3.294.878-1.086.399-1.867.166-2.117-.641-.24-.774.428-1.59 1.481-1.777.33-.06.696-.062.928-.304.707-.737 1.593-.842 2.307-.783m-19.418 58.491c.334-1.859-.36-3.591-.735-5.359-.166-.783-.38-1.547-.462-2.355-.182-1.755.799-2.84 2.145-3.656 1.787-1.084 2.105-1.664 1.332-3.592-.797-1.988-.988-3.867.507-5.623 1.011-1.189 2.772-1.228 3.695-.102.383.468.361.737-.303.906-1.544.393-2.026 1.182-1.705 2.7.357 1.69.934 3.301 1.86 4.777.204.324.313.655.295 1.033-.009.182-.07.432.024.537 1.192 1.32.958 3.131 1.692 4.624.896 1.821 1.701 3.71 1.862 5.774.042.544.43.81.778 1.14.731.692.503 3.018-.331 3.563-.707.462-2.082-.23-2.22-1.194-.371-2.57-1.14-5.086-1.988-7.479-.689-1.942-1.009-4.116-2.323-5.849-.366-.483-.077-1.502-.76-1.528-.558-.022-.36 1.003-.75 1.442-.291.328-.624.628-.862.99-.604.912-.637 1.897-.302 2.92.644 1.975.797 4.065 1.542 6.03.316.836.712 1.601 1.186 2.326.543.833.783 1.727.863 2.68.091 1.083.548 2 1.097 2.934 1.16 1.978 2.325 3.943 3.318 6.033 1.393 2.929 2.145 6.237 4.721 8.583 2.53 2.305 4.898 4.784 7.453 7.063.986.879 2.464.96 3.721 1.39.831.283 1.666.636 2.597.54.523-.054.832.232.945.733.047.213.092.432.181.63.2.437.771.844.24 1.354-.472.451-1.105.646-1.754.46-1.14-.325-2.335-.446-3.435-.921-.406-.176-.85-.414-1.266-.395-2.19.1-3.314-1.398-4.495-2.803-.433-.515-.894-.975-1.484-1.301-1.72-.95-3.008-2.323-4.094-3.92-.674-.991-1.72-1.663-2.56-2.508-1.429-1.438-1.869-3.246-2.673-4.927-.077-.16-.043-.374-.124-.53-1.129-2.163-1.582-4.62-2.967-6.665a9.838 9.838 0 0 1-1.382-2.95c-.62-2.242-1.644-4.334-2.78-6.369-.198-.356-.394-.705-.299-1.136m73.575 79.527c-.433 2.756-1.624 5.321-2.05 8.045-.266 1.69-.683 3.304-1.379 4.831-.568 1.247-1.118 2.552-2.13 3.537-.741.722-1.77.688-2.469-.03-1.875-1.924-4.11-3.44-6.063-5.265-2.487-2.321-4.961-4.641-7.14-7.306-1.844-2.253-3.507-4.719-5.811-6.597-1.113-.907-1.642-2.26-2.323-3.444-1.699-2.954-3.354-5.923-5.335-8.71-1.423-2.003-2.074-4.36-2.689-6.708-.132-.502-.288-.983-.662-1.371-2.31-2.402-3.952-5.282-5.804-8.013-1.258-1.858-2.305-3.803-2.995-5.946-.28-.866-.721-1.682-1.578-2.19-.446-.264-.67-.72-.508-1.235.383-1.226 1.016-2.359 2.238-2.86 3.092-1.265 5.743-3.138 8.018-5.532.976-1.028 2.306-1.425 3.412-2.207.503-.355 1.064-.6.33-1.306-.415-.4-.143-1.052-.283-1.589-.453-1.723-1.134-3.423-1.057-5.236.061-1.443.124-2.9 1.055-4.173.98-1.338 1.734-2.8 2.034-4.472.295-1.641 1.042-3.098 1.908-4.533 1.8-2.979 3.51-6.032 4.105-9.515.25-1.464.29-2.975.007-4.469-.18-.94.346-1.759.569-2.628.07-.274.253-.521.124-1.138-.56 1.16-1.062 2.06-1.443 3.01-.724 1.808-1.816 3.286-3.302 4.593-1.16 1.02-2 2.4-2.99 3.616-1.064 1.307-1.706 2.91-2.95 4.097-1.258 1.2-5.227 1.868-6.655.913-.829-.554-1.434-1.511-1.765-2.437-.894-2.5-2.155-4.806-3.515-7.061-1.232-2.042-2.268-4.058-2.727-6.504-.507-2.705-.96-5.503-2.046-8.067-.747-1.764-1.153-3.61-1.732-5.408-.385-1.197-.948-1.985-2.123-2.418-.58-.214-1.188-.553-1.198-1.299-.01-.803.456-1.376 1.101-1.8.175-.116.404-.196.612-.205 1.304-.057 3.248 1.374 3.593 2.631.474 1.73 1.057 3.398 1.871 5.023.627 1.251.482 2.815 1.051 4.135.992 2.295 1.522 4.723 2.185 7.114.088.316.174.64.195.964.037.56.101 1.162.411 1.584 2.246 3.053 3.452 6.687 5.592 9.79 1.115 1.615 3.151 1.604 4.12-.083 1.512-2.634 3.445-4.946 5.531-7.095 1.603-1.65 2.384-3.524 2.813-5.678.155-.772.421-1.51.545-2.31.212-1.372 2.813-3.085 4.194-3.02 1.063.05 1.615.647 1.769 1.628.072.465.04.953.009 1.428-.208 3.16-.424 6.319-.649 9.477-.046.657-.055 1.336-.234 1.962-.796 2.778-1.223 5.65-3.032 8.119a20.584 20.584 0 0 0-2.66 5.008c-.751 2.053-1.306 4.217-2.352 6.12-1.532 2.784-.85 5.418-.046 8.132.153.517.47.566.93.481.93-.168 1.665.3 2.034 1.03.81 1.607 1.955 3.123 1.766 5.086-.014.152.104.368.23.471 1.025.842 1.194 2.181 1.881 3.182 1.173 1.707 1.993 3.576 2.993 5.347 1.608 2.849 3.362 5.73 5.824 7.964 1.426 1.294 2.79 2.67 4.274 3.924 2.785 2.354 5.096 5.216 5.635 9.05.204 1.457.606 2.861 1.123 4.234.228.603.302 1.209.093 1.829-.161.48-.231 1.125-.86 1.147a1.42 1.42 0 0 1-1.43-1.02 208.91 208.91 0 0 1-1.783-6.196c-.343-1.25-.862-2.34-1.706-3.388-2.24-2.784-5.17-4.862-7.504-7.548-1.871-2.153-3.642-4.358-5.14-6.784-.738-1.196-.808-1.664-2.441-.805-3.258 1.712-6.814 2.74-10.316 3.864-.525.169-1.085.212-1.308-.417-.216-.612.336-.782.747-1.032 2.212-1.339 4.715-2.066 6.978-3.307.965-.53 1.998-.935 2.88-1.613.205-.157.586-.385.461-.547-.75-.969.046-2.197-.771-3.254-1.416-1.833-1.992-4.13-2.78-6.282-.56-1.536-.946-1.69-2.157-.647-.744.641-1.6 1.1-2.534 1.498-1.492.636-2.78 1.666-3.806 2.94-.564.7-1.177 1.298-1.975 1.721-1.2.636-2.382 1.306-3.58 1.946-1.116.596-1.32 1.098-.48 2.052.708.803.917 1.692 1.128 2.665.232 1.074.756 2.071 1.367 2.972 2.052 3.022 4.287 5.921 6.132 9.082.35.601.743 1.178 1.096 1.778.209.353.404.777.237 1.155-.807 1.829.715 2.87 1.394 4.191.147.285.414.507.598.776 2.246 3.283 4.363 6.644 6.426 10.047 1.21 1.995 2.659 3.976 4.77 5.263.152.093.277.245.381.394 2.115 3.019 4.607 5.673 7.432 8.063 1.672 1.414 3.113 3.102 4.83 4.486.03.023.054.053.085.071 2.34 1.359 2.768 1.572 3.804-1.02.746-1.865.805-3.88 1.45-5.749.892-2.582.604-5.371 1.451-7.94.49-1.48.57-3.054 1.337-4.486.828-1.547.387-3.32.331-4.99-.037-1.08.042-2.117.29-3.155.335-1.39.63-2.79 1.011-4.166.199-.717.358-1.628 1.447-1.458.818.128 1.296 1.226 1.06 2.191-.301 1.242-.862 2.405-1.017 3.698-.139 1.168-.404 2.326-.102 3.492.403 1.55-.032 3.067-.246 4.56-.435 3.033-.075 6 .69 8.883.582 2.189 1.223 4.338 1.45 6.603.058.58.683 1.101.742 1.68.289 2.861 1.25 5.65.953 8.576-.062.61-.15 1.2-.815 1.428-.549.188-.92-.153-1.19-.574a1.113 1.113 0 0 1-.159-.625c.199-3.42-.733-6.666-1.539-9.93-.262-1.066-.49-2.12-.448-3.24.028-.777-.698-1.342-.698-2.234 0-1.104-.416-2.208-.653-3.312m101.947-44.967c-1.912 1.22-1.897 1.296-3.684-.07-.645-.492-1.305-.703-2.092-.713-1.604-.02-3.054-.477-4.06-1.902-.71-1.004-1.844-1.335-2.835-1.75-1.452-.607-2.88-1.385-4.482-1.55-.615-.063-.87-.469-.868-1.075.007-3.105-.017-6.21.044-9.314.027-1.315 1.33-2.07 2.444-1.497.525.27 1.033.34 1.542.04.594-.353 1.038-.198 1.547.247 1.373 1.203 2.789 2.354 4.202 3.504.686.558 1.49.87 2.298 1.203 2.394.988 4.726 2.142 7.267 2.704.63.14 1.17.463.952 1.431-.03.153-.002.401.105.654 1.126 2.662-.053 6.604-2.38 8.088m-57.285-15.342c-1.055 2.312-2.183 4.582-2.96 7.028-.339 1.067-1.084 2.001-1.668 2.98-1.121 1.879-1.781 3.969-2.645 5.965-.171.397-.516.712-.716 1.101-1.162 2.265-2.283 4.552-2.52 7.156-.104 1.156-.986 1.87-1.44 2.826-.146.306-.49.253-.772.089-1.007-.587-2.113-1-3.086-1.605-.683-.425-1.208-1.28-1.568-2.057-.998-2.152-2.227-4.182-3.557-6.092-1.598-2.291-3.296-4.513-4.796-6.879-1.55-2.444-3.02-4.94-4.203-7.598-.107-.24-.428-.531-.103-.789.217-.172.497.032.702.164 1.01.652 2.109 1.207 2.988 2.013 2.76 2.531 5.133.58 5.762-1.952.708-2.852 1.694-5.587 2.622-8.354.273-.815.752-1.115 1.55-1.03.898.097 1.8.172 2.7.247 1.91.158 3.64-.483 5.322-1.299.817-.396 1.688-.735 2.396-1.286.715-.557 1.086-.456 1.355.339.503 1.488 1.602 2.648 2.112 4.14.205.601.106.928-.424 1.143-2.782 1.13-4.754 3.317-6.77 5.448-1.032 1.09-1.207 1.108-1.967-.228-.872-1.535-1.761-3.076-2.186-4.83-.225-.924-.888-1.603-1.271-2.44-.202-.442-.649-.607-1.118-.398-.549.243-.791.73-.899 1.34.072.268.137.557.226.838.862 2.719 1.747 5.427 3.432 7.762.35.486.545 1.02.662 1.622.16.82.68 1.445 1.505 1.567.803.12 1.277-.434 1.735-1.09 2.107-3.01 4.514-5.683 8.027-7.005.17-.064.34-.146.517-.168.528-.069 1.2-.355 1.544.08.313.398-.297.834-.488 1.252m-31.829-3.888c-.824-.415-1.18-.95-1.027-1.929.208-1.333.065-2.716.558-4.016.087-.23.129-.54.048-.76-.993-2.674-1.012-5.775-3.678-7.706-1.333-.965-2.005-2.466-2.018-4.221-.015-2.017-.935-3.677-2.343-5.038-1.449-1.403-2.663-2.961-3.851-4.6-1.686-2.323-3.24-4.746-5.024-7.006-1.151-1.46-1.698-3.128-.78-5.03.407-.845.615-1.798.837-2.732.288-1.216.016-2.46-.166-3.556-.553-3.338-.43-6.719-.924-10.059-.336-2.261-.581-4.562-.798-6.852-.039-.414-.008-.927.325-1.121 1.289-.753 1.45-2.125 1.918-3.326.167-.43.3-.932.815-.88.456.048.505.572.566.967.425 2.747.644 5.544 1.321 8.225.485 1.915.58 3.882 1.137 5.783.589 2.004.788 4.11.478 6.214-.244 1.652.841 2.772 1.585 3.989.817 1.338 1.87 2.42 3.42 3.087 1.998.86 3.368 2.66 5.03 4.027.788.648 1.533 1.362 2.714 1.121.596-.121.72.372.72.853.001.752-.285 1.445-.534 2.129-.609 1.675-.012 3.111.879 4.44.47.702 1.274.503 1.884.139.69-.412 1.038-1.115.602-1.878-.514-.897-.384-1.753-.296-2.723.222-2.444 1.356-4.643 1.68-7.045.019-.145.031-.31.109-.423 1.073-1.581 2.074-3.174 3.937-4.05 1.93-.907 3.824-1.957 5.25-3.64.903-1.068 2.212-1.682 3.065-2.814.3-.4.577-.096.767.203 1 1.567 2.459 1.82 4.101 1.385.652-.172 1.17.046 1.655.35 1.597 1.002 3.274 1.86 4.865 2.889 1.693 1.093 3.801.951 5.66.011.627-.317.93-.238 1.396.188 1.112 1.019 2.153 2.071 2.828 3.457.225.462.389.92.184 1.366-1.038 2.265-.41 4.535-.037 6.791.365 2.204.75 4.406.257 6.624-.155.697-.618 1.322-.905 1.996-.399.935-.953 1.805-.996 2.883a1.853 1.853 0 0 1-.946 1.546c-1.689.91-2.542 2.566-3.664 3.983-.41.515-.733 1.106-1.175 1.588-.627.68-.91 1.436-.613 2.314.174.509 0 .866-.396.986-2.73.834-4.706 2.983-7.272 4.157-2.04.934-4.05 1.21-6.137.955-3.461-.423-6.911-.08-10.365-.116-.645-.008-1.234.008-1.416-.843-.1-.47-.527-.485-.88-.262-.477.3-1 .443-1.532.57-.75.18-1.456.45-1.428 1.388.029.979.665 1.554 1.542 1.764.811.195 1.66.232 2.492.338l.004-.263c1.592 0 3.183-.017 4.774.006 1.208.016 1.381.224.88 1.28a25.112 25.112 0 0 0-2.117 6.912c-.2 1.268-.678 1.408-1.732.807-1.522-.867-2.968-1.797-4.191-3.1-.802-.855-2-1.196-3.042-1.722M96.301 83.397c-.047-.44-.08-.885-.073-1.327.01-.6-.149-1.065-.708-1.387-.795-.456-.926-1.383-1.304-2.113-.503-.971-1.02-1.826-2.05-2.359-.842-.436-1.502-1.159-2.04-1.98-1.509-2.303-3.208-4.506-3.65-7.343-.066-.419-.116-.84-.172-1.26.756-13.58 7.57-23.91 20.126-29.881 7.114-3.384 14.562-3.418 22.066-1.318 5.994 1.677 14.49 4.083 17.328 10.227-.427-.136-.87-.227-1.341-.21a5.206 5.206 0 0 0-2.491.726 74.09 74.09 0 0 0-5.997 3.855c-.088.063-.197.16-.286.15-1.542-.174-2.94.77-4.43.662-2.038-.146-4.025.111-6.028.35-.399.047-.808.007-1.45.007-1.692.385-3.299-.523-4.992-1.23-1.821-.761-3.694-1.471-5.61-1.901-1.311-.294-2.73.233-3.965.699-1.504.568-3.05 1.086-4.364 2.213-2.326 1.996-3.472 4.44-3.836 7.445a40.943 40.943 0 0 1-.89 4.953c-.348 1.397-.28 2.93-.203 4.392a7.067 7.067 0 0 1-.471 3.007c.473.467.655 1.161.553 1.879-.219 1.545-.626 3.046-.84 4.572.09 1.045.058 2.111-.169 3.219-.166.813-.673 1.228-1.259 1.339-.324.429-.425.933-.307 1.509.073.356.08.737.042 1.1-.04.372-.323.586-.685.607-.39.022-.472-.304-.504-.602m-2.604 12.341c-1.723.54-2.971.242-3.523-.861-1.082-2.163-.99-4.466-.71-6.762.092-.755.887-.945 1.512-1.09.636-.147.885.39 1.058.882.176.506.406.933 1.03.989.354.032.507.264.544.583.161 1.357.319 2.715.478 4.073l-.047.006c0 .18.037.37-.007.539-.14.544.742 1.304-.335 1.641m116.98 64.69a3.558 3.558 0 0 1-.384-.584c-1.362-.139-2.627-.49-3.92-1.001-.122-.043-.248-.097-.372-.147a1.015 1.015 0 0 1-.452-.085c-3.476-1.589-7.196-2.753-9.899-5.697-.155-.17-.283-.36-.412-.548-2.173-.488-4.38-.725-6.456-.684-.693.304-1.343.676-2.005 1.057-1.105.634-1.658 1.53-1.707 2.754-.066 1.663-.565 3.286-.18 4.997.425 1.893-.515 3.807-.005 5.777.215.827-.1 1.836-.463 2.764-.773 1.98-1.953 3.831-2.455 5.863-.897 3.634-2.706 6.953-3.443 10.624-.04.205-.094.474-.367.485-.29.013-.323-.256-.354-.466-.15-1.022-.605-1.963-.846-2.944-.787-3.2-1.62-6.368-2.988-9.39-.826-1.823-1.257-3.836-2.271-5.567-1.76-3.004-3.232-6.15-4.691-9.293-1.052-2.266-2.655-3.91-4.664-5.258-.793-.533-1.765-.417-2.635-.709-3.286-1.1-6.442-2.62-9.955-3.008-1.178-.13-2.163-.707-2.448-2.034-.11-.51-.412-.93-.711-1.356-.864-1.23-.752-1.791.524-2.577.644-.396 1.09-.85.951-1.684-.083-.494.12-.876.637-1.004.985-.243 1.36-1.02 1.717-1.85.78-1.812 2.02-3.294 3.538-4.521.707-.573 1.3-1.182 1.635-2.018.504-1.259.907-2.564 1.492-3.783 1.39-2.899 1.557-5.955.96-9-.524-2.674-.922-5.251.282-7.827.233-.498.2-.967-.225-1.412-1.57-1.638-2.8-3.568-4.445-5.145-.469-.45-.564-1.242-1.235-1.506-.729-.287-1.024-.845-1.009-1.544.041-1.9-.87-3.433-1.771-4.998-.914-1.584-2.069-3.016-2.852-4.683-.943-2.012-1.677-4.113-2.864-6.026-.728-1.174-1.004-2.601-1.155-3.992-.085-.779-.802-1.413-.576-2.197.342-1.184.166-2.41.445-3.596.15-.635.146-1.378-.58-1.743-.71-.356-1.286.087-1.799.504-.53.43-.67 1.024-.51 1.691.178.743.102 1.48-.232 2.151-.473.952-.307 2.025-.646 2.999-.136.395.118.718.405.96.502.424.67.985.89 1.583.602 1.632.815 3.447 2.039 4.807.711.792 1.042 1.753 1.396 2.717.34.928.545 1.962 1.194 2.703 1.105 1.263 1.988 2.66 2.467 4.227.476 1.553 1.424 2.966 1.383 4.69-.02.895-.218 1.197-1.213 1.13-1.001-.067-1.387-.892-2.115-1.27-1.232-.641-2.618-.97-3.73-1.863-.415-.333-.734-.588-.451-1.165.181-.37.09-.946-.288-.875-.955.177-2.102-.699-2.89.565-.332.53-.838.888-1.4-.026-.379-.616-1.323-1.08-1.926-.595-1.021.822-2.154 1.269-3.348 1.667-.033.01-.056.05-.088.065-1.617.724-2.56 2.276-3.994 3.233-2.26 1.508-4.854 2.465-6.722 4.641-1.083 1.262-2.075 2.411-2.355 4.094-.22 1.327-.279 1.313-1.527.889-.203-.07-.453-.161-.634-.101-.838.275-1.385-.167-1.972-.655a130.29 130.29 0 0 0-4.032-3.227c-2.172-1.663-3.894-3.545-3.676-6.553a9.568 9.568 0 0 0-.49-3.797c-.756-2.195-1.196-4.444-1.488-6.74-.35-2.76-.68-5.52-1.264-8.25-.541-2.528-1.678-5.016-.846-7.704.03-.097-.024-.217-.024-.327-.006-2.037-.269-4.077.107-6.109.186-1.01.479-2.028.467-3.04-.053-4.34 1.057-8.49 1.934-12.68.154-.74.55-1.321 1.05-1.894 1.406-1.613 3.384-2.103 5.277-2.692.765-.238 1.64-.498 2.485-.306 1.709.385 3.296 1.128 4.935 1.72 2.16.782 4.329 1.648 6.746 1.187 2.802-.535 5.674-.424 8.49-.777 1.526-.191 3.186-.155 4.543-1.118 1.391-.989 3-1.63 4.32-2.74a2.045 2.045 0 0 1 1.329-.473c.35.006.744.064.76.47.06 1.507.597 2.936.697 4.432.24 3.591.233 7.22 1.825 10.581.325.686.867.837 1.529.828.678-.009.779-.468.893-1.024.26-1.27-.006-2.46-.36-3.661-.264-.898-.602-1.802-.676-2.721-.21-2.625-.319-5.26-.434-7.891-.022-.52.13-1.025.389-1.435.418-.244.713-.698.575-1.303-1.591-7.02-8.302-9.928-14.514-12.162-8.237-2.962-16.88-4.624-25.367-1.712-6.96 2.389-13.479 6.938-18.138 12.624-4.838 5.904-6.55 12.287-6.981 19.544a2.193 2.193 0 0 1-.73-.155c.614 2.568.359 5.342 2.014 7.668.556.78 1.324 1.598.943 2.765-.07.216.176.412.409.439.607.072.957.498 1.335.898.703.745 1.284 1.714 2.14 2.187 2.178 1.204 2.364 3.395 3.01 5.376.146.452 0 .626-.573.539-1.835-.276-3.45.266-4.87 1.465-1.032.87-.838 2.061-.88 3.168-.047 1.323-.626 2.661.032 3.974.268.535.36 1.1.468 1.682.184.99.093 2.071.856 2.905 1.192 1.3 3.292 2.234 5.157 1.181 1.01-.57 1.63-.246 1.63.7 0 2.506.337 4.97.795 7.425.37 1.983.18 3.77-.981 5.606a4.406 4.406 0 0 0-.132 4.509c1.495 2.692 3.26 5.21 5.085 7.675 1.448 1.956 2.733 4.123 4.685 5.598 1.849 1.397 2.1 3.222 2.354 5.257.24 1.925 1.263 3.559 2.762 4.832 1.013.86 1.977 1.743 2.564 2.97.485 1.012.75 2.065.803 3.443.001.037-.003.075.005.11.396 1.901-.146 3.634-.975 5.307-.255.515-.194 1.226-.775 1.536-2.081 1.11-3.96 2.505-5.802 3.96-1.973 1.556-3.418 3.602-5.101 5.428a.607.607 0 0 0-.036.815c.183.234.453.214.711.141.424-.119.937-.177 1.185-.539.708-1.028 1.788-1.603 2.728-2.338 2.075-1.621 4.203-3.169 6.694-4.122.728-.279 1.308-.156 1.883.433 1.196 1.227 2.071 2.683 2.892 4.14 2.271 4.037 5.044 7.741 7.63 11.562 1.73 2.557 3.344 5.14 4.606 7.945.662 1.472 1.723 2.564 3.167 3.22.91.415 1.762.88 2.582 1.449 1.023.708 2.926.606 3.67-.295 1.216-1.471 2.22-3.097 2.44-5.057.079-.7.224-1.377.442-2.037.86-2.604 2.094-5.055 3.31-7.495.857-1.719 1.577-3.534 2.773-5.084.279-.361.466-.867.508-1.324.169-1.82 1.177-3.29 1.918-4.873.917-1.957 2.393-3.609 3.099-5.683.223-.658.727-.649 1.257-.389 1.372.673 3.022.66 4.227 1.77.351.324.914.193 1.385.258.863.12 1.771.143 2.413.89 1.148 1.335 2.417 2.595 3.158 4.214 1.001 2.188 2.257 4.26 2.992 6.57.054.168.17.33.295.458 2.158 2.21 2.953 5.14 3.964 7.894 1.247 3.4 2.005 6.975 3.178 10.405.788 2.305.414 4.094-1.445 5.644-.856.714-1.182 1.677-1.263 2.817-.158 2.195-.73 4.275-2.349 5.916-.089.09-.178.315-.132.383.552.801.277 1.795.643 2.633.124.285.341.604.647.458.861-.414 1.886-.594 2.177-1.797a64.56 64.56 0 0 1 1.503-5.172c.216-.646-.052-1.31.277-1.932 1.109-2.089 2.593-3.875 4.26-5.542 1.197-1.197 2.26-2.494 1.936-4.402-.08-.467.154-.927.35-1.369.265-.603.498-1.221.722-1.841 1.284-3.562 1.944-7.353 3.92-10.663.223-.376.35-.806.541-1.202.278-.577.672-.942 1.388-.786 1.953.428 3.89.91 5.713 1.743.303.139.564.491.72.806.644 1.298 1.728 1.81 3.108 1.911 1.752.129 3.408.494 4.656 1.906.424.48 1.05.683 1.703.649 1.583-.084 1.587-.092 1.052 1.452-.096.276-.251.532-.355.806-.566 1.504-1.302 2.974-1.636 4.53-.329 1.529-.864 2.944-1.496 4.346-1.22 2.706-2.393 5.423-3.31 8.259-.525 1.621-.852 3.316-1.696 4.853-.573 1.045-1.481 1.825-1.993 2.89-1.156 2.403-2.57 4.695-3.155 7.346-.111.502-.363.956-.673 1.377-1.364 1.85-2.817 3.641-4.051 5.574-1.124 1.76-2.843 3.03-3.809 4.896-.73 1.413-1.937 2.272-3.401 2.794-.528.188-1.068.37-1.423.802-.558.678-1.308 1.015-2.057 1.403-.524.272-.755.226-1.003-.32-.41-.902-.916-1.771-1.584-2.505-1.247-1.368-1.967-3.055-2.358-4.76-.682-2.974-1.922-5.67-3.315-8.339-.863-1.652-1.887-3.288-2.153-5.148-.333-2.332-1.06-4.566-1.453-6.877-.425-2.507-1.431-4.934-.993-7.556.021-.132-.077-.28-.1-.425-.45-2.836-1.474-5.517-2.2-8.277-.272-1.036-.954-2.162-.052-3.341.415-.542-.094-.937-.705-1.014-.47-.06-.958.015-1.393-.253-.527-.323-1.047-.598-1.515.112-.475.719-1.244 1.365-.437 2.325.187.223.395.458.492.723 1.295 3.542 2.637 7.074 2.917 10.885.235 3.19.533 6.36 2.049 9.272.343.66.33 1.414.349 2.155.064 2.45.76 4.744 1.719 6.985.453 1.06 1.571 2.137.182 3.35-.162.141-.108.559-.108.848-.002 3.22-.048 6.441.033 9.66a14.64 14.64 0 0 0 1.025 5.048c.175.439.389.964.973.894.546-.067.52-.618.643-1.035.504-1.711-.25-3.367-.233-5.078.025-2.569-.052-5.138.278-7.757.19.502.381 1.003.568 1.506 1.076 2.89 1.498 6.036 3.506 8.565.696.877 1.598 1.688 2.543 1.437 1.305-.348 1.658.353 2.175 1.132.945 1.42 2.653 1.307 3.383-.247.313-.668.739-1.158 1.414-1.458 2.137-.951 4.368-1.804 4.957-4.473a.702.702 0 0 1 .24-.363c1.553-1.23 2.098-3.36 3.915-4.362.23-.127.373-.441.52-.69.554-.934 1.11-1.866 1.633-2.818.705-1.285 1.941-2.31 2.284-3.732.61-2.534 1.71-4.837 2.912-7.105.458-.864 1.307-1.542 1.675-2.43 1.257-3.032 2.377-6.12 3.28-9.28.109-.38.327-.734.519-1.086.894-1.644 1.864-3.267 2.3-5.103.655-2.757 1.826-5.319 2.844-7.943.554-1.432 1.42-2.873.513-4.493-.213-.38.131-.485.336-.686 1.116-1.096 2.023-2.329 2.294-3.915.293-1.725.447-3.48.863-5.173.267-1.087.132-1.916-.586-2.728-.338-.383-.573-.856-.899-1.25"/>
    </g>
</svg>
